<svg width="149" height="81" viewBox="0 0 149 81" fill="none" xmlns="http://www.w3.org/2000/svg">
<g clip-path="url(#clip0_215_7431)">
<mask id="mask0_215_7431" style="mask-type:luminance" maskUnits="userSpaceOnUse" x="4" y="-15" width="136" height="110">
<path d="M139.708 -14.1641H4V94.9123H139.708V-14.1641Z" fill="white"/>
</mask>
<g mask="url(#mask0_215_7431)">
<path d="M62.4088 35.1906H61.3858V49.6108C61.3858 50.7012 61.9678 51.1667 62.7825 51.1667H63.5421V36.2626C63.5279 35.9712 63.4012 35.6967 63.1887 35.4968C62.9762 35.2968 62.6945 35.1871 62.4027 35.1906M22.444 35.1906H21.7947C20.8647 38.7737 19.4203 42.203 17.5066 45.3717C15.6675 42.6326 14.3795 39.5616 13.7147 36.33C13.5554 35.601 13.0715 35.1967 12.0301 35.1967H11.4727C12.3793 40.3976 13.6534 42.9888 15.1481 45.5126C15.5083 46.0808 15.9184 46.6159 16.3733 47.1115C15.3871 48.5449 14.266 50.0763 13.7208 50.7869L14.3824 51.0932C14.6824 51.2331 15.0191 51.2741 15.3439 51.2102C15.6687 51.1464 15.9648 50.981 16.1895 50.7379C17.9129 48.7462 19.3764 46.5437 20.545 44.1833C22.2786 41.2552 23.5711 37.8308 23.5711 36.2197C23.5711 35.4908 23.2281 35.1784 22.4562 35.1784M46.0897 42.2537C42.9471 41.5308 42.212 41.0285 42.212 39.5399C42.212 38.0514 43.5719 37.0896 45.8875 37.0896C48.1234 37.0896 49.4282 37.7022 50.4267 38.9764H50.5431V38.0207C50.5431 36.5812 48.9382 35.0926 46.0039 35.0926C42.2794 35.0926 40.1109 37.1631 40.1109 39.8585C40.1109 42.1189 41.5137 43.1419 44.6072 43.8219C47.8661 44.5386 48.7728 45.1451 48.7728 46.799C48.7728 48.453 47.8661 49.3841 45.1463 49.3841C44.2348 49.4094 43.3294 49.2274 42.4985 48.8517C41.6676 48.4761 40.9329 47.9166 40.3498 47.2156H40.264V48.2386C40.264 50.0335 42.7511 51.3811 45.0115 51.3811C49.0607 51.3811 50.8923 49.1942 50.8923 46.5663C50.8923 43.9383 48.3378 42.7499 46.108 42.2353M73.907 42.2353C70.7583 41.5125 70.0294 41.0101 70.0294 39.5216C70.0294 38.033 71.3893 37.0712 73.7048 37.0712C76.0204 37.0712 77.2456 37.6838 78.2441 38.958H78.3605V38.0024C78.3605 36.5628 76.7555 35.0742 73.8212 35.0742C70.0967 35.0742 67.9282 37.1447 67.9282 39.8401C67.9282 42.1005 69.331 43.1235 72.4246 43.8035C75.6835 44.5202 76.5901 45.1267 76.5901 46.7807C76.5901 48.4346 75.6835 49.3658 72.9575 49.3658C72.0469 49.391 71.1424 49.2089 70.3125 48.8333C69.4826 48.4576 68.749 47.8981 68.1671 47.1972H68.0507V48.2202C68.0507 50.0151 70.5378 51.3628 72.7982 51.3628C76.8474 51.3628 78.679 49.1759 78.679 46.5479C78.679 43.9199 76.1245 42.7315 73.8947 42.2169M30.5913 35.1906H29.8869C27.4365 38.1984 24.245 47.9262 24.245 50.1376C24.245 50.8666 24.5268 51.1667 25.2129 51.1667H26.0337C26.2665 49.8558 26.6892 48.1038 26.9955 46.9399L27.4917 45.2247C28.2184 42.3967 29.2989 39.6717 30.7077 37.1141C32.0949 39.6825 33.1763 42.4046 33.9299 45.2247H28.1839V45.8373C28.1839 46.4989 28.6249 46.9461 29.5928 46.9461H34.4935C34.6772 47.724 35.0326 48.9431 35.247 50.0457C35.2672 50.2178 35.3218 50.3841 35.4076 50.5346C35.4934 50.6852 35.6086 50.817 35.7463 50.9221C35.884 51.0273 36.0415 51.1036 36.2093 51.1467C36.3772 51.1898 36.5519 51.1987 36.7233 51.1729H37.5013C36.6988 46.0088 34.1872 39.4481 32.7783 36.9793C32.0983 35.7542 31.5102 35.1967 30.6158 35.1967M121.67 35.1967H120.776V48.5265C120.064 47.4848 119.459 46.3746 118.969 45.2125L115.593 38.3638C114.65 36.4648 113.382 35.1722 111.507 35.1722H110.478V49.6965C110.478 50.6338 110.993 51.1484 111.673 51.1484H112.549V37.4878C113.291 38.2593 113.888 39.1577 114.313 40.1403L117.688 46.9706C119.379 50.3704 120.672 51.1667 122.123 51.1667H122.779V36.3423C122.781 36.1941 122.754 36.0469 122.699 35.9094C122.643 35.772 122.561 35.647 122.456 35.5419C122.352 35.4369 122.227 35.3538 122.09 35.2977C121.953 35.2415 121.806 35.2135 121.658 35.2151M132.372 35.2151H130.393C129.202 35.2463 128.017 35.4023 126.859 35.6807V47.9078C126.859 49.9355 128.231 51.2831 130.908 51.2831H132.329C136.47 51.2831 139.423 48.0058 139.423 43.0929C139.423 38.3209 136.188 35.2274 132.372 35.2274M132.096 49.378H131.232C129.768 49.378 128.996 48.7654 128.996 47.3259V37.3408C129.641 37.2177 130.295 37.1481 130.951 37.1325H131.863C135.214 37.1325 137.285 39.1601 137.285 43.4176C137.285 46.9583 135.373 49.378 132.096 49.378ZM87.9903 49.2861C85.105 49.2861 84.4067 48.4224 84.4067 45.0471V36.7711C84.4067 35.5459 83.8982 35.1906 83.059 35.1906H82.2932V45.6045C82.2932 49.2371 83.8737 51.2831 87.5492 51.2831H88.8785C91.5065 51.2831 91.972 50.5174 91.972 49.5618V48.9492C90.9589 49.1912 89.9201 49.3084 88.8785 49.2984L87.9903 49.2861ZM100.579 35.1967H99.8744C97.424 38.2045 94.2386 47.9323 94.2386 50.1437C94.2386 50.8727 94.5204 51.1729 95.2003 51.1729H96.009C96.2479 49.8619 96.6705 48.11 96.9768 46.9461L97.4669 45.2308C98.1931 42.4017 99.2758 39.6764 100.689 37.1202C102.074 39.6888 103.154 42.4109 103.905 45.2308H98.1591V45.8434C98.1591 46.505 98.6063 46.9522 99.5681 46.9522H104.469C104.659 47.7302 105.014 48.9492 105.222 50.0518C105.242 50.2245 105.297 50.3914 105.383 50.5424C105.47 50.6934 105.585 50.8255 105.724 50.9307C105.862 51.036 106.02 51.1122 106.189 51.1548C106.357 51.1975 106.533 51.2057 106.705 51.179H107.476C106.68 46.0149 104.169 39.4542 102.753 36.9855C102.074 35.7603 101.485 35.2029 100.591 35.2029" fill="#E6ECD1"/>
<path d="M104.518 24.6523C104.183 24.6523 103.862 24.7853 103.625 25.0219C103.389 25.2586 103.256 25.5796 103.256 25.9143C103.256 26.2489 103.389 26.5699 103.625 26.8066C103.862 27.0432 104.183 27.1762 104.518 27.1762C104.84 27.1684 105.147 27.0368 105.375 26.8087C105.604 26.5806 105.735 26.2735 105.743 25.951C105.74 25.6229 105.611 25.3084 105.383 25.0725C105.155 24.8365 104.846 24.6971 104.518 24.683" fill="#E6ECD1"/>
<path d="M116.488 11.9815C116.813 11.9815 117.125 11.8524 117.355 11.6226C117.585 11.3929 117.714 11.0813 117.714 10.7563C117.712 10.4278 117.584 10.1124 117.356 9.87616C117.128 9.63988 116.817 9.50092 116.488 9.48828C116.154 9.48828 115.833 9.62123 115.596 9.85789C115.36 10.0945 115.227 10.4155 115.227 10.7502C115.227 11.0849 115.36 11.4059 115.596 11.6425C115.833 11.8792 116.154 12.0121 116.488 12.0121" fill="#E6ECD1"/>
<path d="M135.079 16.5887C134.669 16.2273 134.167 15.8108 133.634 15.3636C133.634 15.3636 131.012 13.1215 128.365 14.1384C127.924 14.2656 127.497 14.438 127.091 14.653C126.989 14.7165 126.901 14.7995 126.832 14.8973C126.763 14.9951 126.713 15.1057 126.687 15.2227C126.668 15.3399 126.672 15.4599 126.699 15.5755C126.726 15.6912 126.776 15.8003 126.846 15.8965L127.52 16.9073L128.077 16.6561C129.1 16.2396 130.528 15.872 131.441 16.4172C133.034 17.4736 134.536 18.6621 135.931 19.9702L136.837 20.8278L135.992 20.9074C134.657 21.03 133.431 21.0361 132.255 21.0361H117.706V14.6468C117.692 14.3522 117.564 14.0745 117.349 13.8723C117.135 13.6701 116.85 13.5591 116.555 13.5626H115.52V23.3026C115.52 25.1404 114.735 26.0899 113.192 26.0899C112.732 26.0942 112.275 26.0238 111.838 25.8816V26.3778C111.838 27.0823 112.352 27.8357 113.798 27.8357C114.686 27.8357 117.67 27.4559 117.67 23.7131L117.706 22.9718H131.967C133.992 23.0016 136.012 22.796 137.989 22.3593C138.308 22.2995 138.605 22.1538 138.848 21.938C139.091 21.7221 139.271 21.4442 139.367 21.1341L139.416 21.0116C138.099 19.4297 136.648 17.9643 135.079 16.6316" fill="#E6ECD1"/>
<path d="M107.691 24.6523C107.356 24.6523 107.035 24.7853 106.798 25.0219C106.562 25.2586 106.429 25.5796 106.429 25.9143C106.429 26.2489 106.562 26.5699 106.798 26.8066C107.035 27.0432 107.356 27.1762 107.691 27.1762C108.016 27.1762 108.327 27.0471 108.557 26.8173C108.787 26.5876 108.916 26.2759 108.916 25.951C108.914 25.6225 108.786 25.3071 108.558 25.0709C108.33 24.8346 108.019 24.6956 107.691 24.683" fill="#E6ECD1"/>
<path d="M107.789 13.5508H106.753V21.0365H84.443V14.6473C84.4287 14.3516 84.2999 14.073 84.0838 13.8706C83.8677 13.6682 83.5813 13.5579 83.2852 13.563H82.25V23.3031C82.25 25.1408 81.472 26.0903 79.9283 26.0903C79.4667 26.0946 79.0075 26.0242 78.5684 25.8821V26.3782C78.5684 27.0827 79.089 27.8362 80.5347 27.8362C81.423 27.8362 84.443 27.5483 84.443 23.8054V22.9539H106.331C108.603 22.9539 108.916 22.1759 108.94 21.4041V14.6473C108.927 14.3521 108.8 14.0736 108.585 13.871C108.37 13.6685 108.084 13.558 107.789 13.563" fill="#E6ECD1"/>
<path d="M61.2337 21.2623V14.6464C61.2195 14.3518 61.0915 14.0741 60.8767 13.8719C60.6619 13.6697 60.3771 13.5587 60.0821 13.5622H59.0468V21.0357H43.7323C41.1778 21.0357 40.6693 19.8595 40.6693 17.6848V8.66764V8.05505C40.6551 7.76039 40.5271 7.48274 40.3123 7.28052C40.0975 7.0783 39.8127 6.96727 39.5177 6.97078H38.4824V17.9973C38.4824 21.2194 40.1609 22.8979 43.3279 22.8979H58.6425C61.0499 22.8979 61.2521 22.0219 61.2521 21.2072" fill="#E6ECD1"/>
<path d="M76.0081 11.9803C76.3306 11.9726 76.6377 11.841 76.8658 11.6129C77.0939 11.3848 77.2255 11.0777 77.2333 10.7552C77.2405 10.5026 77.1718 10.2537 77.036 10.0406C76.9002 9.82756 76.7035 9.66018 76.4715 9.56014C76.2395 9.46011 75.9827 9.43203 75.7346 9.47954C75.4864 9.52706 75.2582 9.64797 75.0796 9.82664C74.9009 10.0053 74.78 10.2335 74.7325 10.4817C74.685 10.7298 74.713 10.9865 74.8131 11.2186C74.9131 11.4506 75.0805 11.6472 75.2936 11.7831C75.5066 11.9189 75.7555 11.9876 76.0081 11.9803Z" fill="#E6ECD1"/>
<path d="M131.619 24.6523C131.285 24.6523 130.964 24.7853 130.727 25.0219C130.49 25.2586 130.357 25.5796 130.357 25.9143C130.357 26.2489 130.49 26.5699 130.727 26.8066C130.964 27.0432 131.285 27.1762 131.619 27.1762C131.942 27.1684 132.249 27.0368 132.477 26.8087C132.705 26.5806 132.837 26.2735 132.845 25.951C132.842 25.6229 132.713 25.3084 132.485 25.0725C132.257 24.8365 131.947 24.6971 131.619 24.683" fill="#E6ECD1"/>
<path d="M60.0402 24.6523C59.7056 24.6523 59.3846 24.7853 59.1479 25.0219C58.9113 25.2586 58.7783 25.5796 58.7783 25.9143C58.7783 26.2489 58.9113 26.5699 59.1479 26.8066C59.3846 27.0432 59.7056 27.1762 60.0402 27.1762C60.3681 27.1763 60.6829 27.0482 60.9176 26.8193C61.1522 26.5903 61.288 26.2787 61.296 25.951C61.2929 25.6178 61.16 25.2989 60.9255 25.0621C60.691 24.8254 60.3734 24.6893 60.0402 24.683" fill="#E6ECD1"/>
<path d="M55.5791 25.9204C55.5933 26.2492 55.7336 26.56 55.9708 26.7881C56.2081 27.0163 56.5241 27.1443 56.8533 27.1456C57.1758 27.1378 57.4829 27.0062 57.711 26.7781C57.9391 26.55 58.0707 26.2429 58.0784 25.9204C58.0771 25.5918 57.9489 25.2765 57.7206 25.0402C57.4923 24.8039 57.1816 24.665 56.8533 24.6523C56.5174 24.6555 56.196 24.7899 55.9579 25.0269C55.7199 25.2638 55.5839 25.5845 55.5791 25.9204Z" fill="#E6ECD1"/>
<path d="M72.8293 11.9815C73.1542 11.9815 73.4659 11.8524 73.6956 11.6226C73.9254 11.3929 74.0545 11.0813 74.0545 10.7563C74.0531 10.4278 73.9249 10.1124 73.6966 9.87616C73.4683 9.63988 73.1576 9.50092 72.8293 9.48828C72.4946 9.48828 72.1736 9.62123 71.937 9.85789C71.7003 10.0945 71.5674 10.4155 71.5674 10.7502C71.5674 11.0849 71.7003 11.4059 71.937 11.6425C72.1736 11.8792 72.4946 12.0121 72.8293 12.0121" fill="#E6ECD1"/>
<path d="M34.1388 13.5491H33.1035V21.0655H31.4128C31.1361 21.0937 30.8568 21.0524 30.6001 20.9454C30.3434 20.8385 30.1174 20.6692 29.9426 20.4529C29.7031 20.0892 29.5753 19.6633 29.5751 19.2277V14.6456C29.5608 14.3499 29.432 14.0713 29.2159 13.8689C28.9997 13.6665 28.7133 13.5562 28.4173 13.5614H27.382V19.3012C27.3946 19.7474 27.2444 20.1829 26.9594 20.5264C26.7917 20.7059 26.5872 20.8471 26.3598 20.9401C26.1325 21.0332 25.8877 21.0759 25.6423 21.0655C25.395 21.0769 25.148 21.0346 24.9186 20.9416C24.6891 20.8485 24.4825 20.7069 24.313 20.5264C24.0404 20.1974 23.8909 19.7837 23.8903 19.3564V14.6456C23.876 14.3499 23.7472 14.0713 23.5311 13.8689C23.315 13.6665 23.0286 13.5562 22.7325 13.5614H21.6973V21.384C21.7838 22.5754 21.5129 23.7656 20.9193 24.8022C19.6635 26.7564 13.5683 27.2954 13.5254 21.9047C13.5254 19.6443 14.138 18.3272 15.4306 17.3165V17.194H14.4688C13.0109 17.194 11.5039 18.8173 11.5039 21.7822C11.5039 30.7014 23.6759 29.1332 23.6759 22.9338L23.7433 22.2171L24.3007 22.6766C24.7638 23.0287 25.3371 23.2046 25.918 23.1728C26.3837 23.1839 26.8448 23.0786 27.2595 22.8665C27.5905 22.6758 27.8539 22.3867 28.013 22.0395L28.3377 21.4269L28.6868 22.0395C28.8331 22.3466 29.0706 22.6012 29.3668 22.7685C29.7414 22.9212 30.145 22.9902 30.5491 22.9706H35.2476V14.6456C35.2319 14.3487 35.1033 14.0691 34.888 13.864C34.6727 13.659 34.3871 13.5441 34.0898 13.543" fill="#E6ECD1"/>
<path d="M73.9567 22.9353H74.7775C76.3764 22.9353 77.1482 22.3227 77.1482 21.0975V13.8323C76.4727 13.6625 75.7802 13.57 75.0838 13.5566H74.0547C71.929 13.5566 69.7666 15.0452 69.7666 18.1204C69.7666 20.8647 71.5615 22.9353 73.9444 22.9353M74.0547 15.425H74.3365C74.6444 15.4353 74.9504 15.4785 75.2492 15.5537V20.1603C75.2492 20.5952 75.0593 21.122 74.1772 21.122H73.9567C72.6702 21.122 71.6962 19.7682 71.6962 18.3348C71.6962 16.6992 72.6212 15.4066 74.0547 15.4066" fill="#E6ECD1"/>
<path d="M138.829 59.7216C138.776 59.6831 138.735 59.632 138.708 59.573C138.681 59.514 138.67 59.4492 138.675 59.3846C138.675 59.1641 138.798 59.06 139.049 59.06C139.133 59.0574 139.216 59.072 139.294 59.1029L139.453 59.1764C139.502 59.1438 139.541 59.1001 139.569 59.0489C139.597 58.9977 139.612 58.9405 139.613 58.8823C139.611 58.826 139.593 58.7713 139.56 58.7255C139.527 58.6796 139.482 58.6446 139.429 58.625C139.285 58.5655 139.131 58.5363 138.976 58.5393C138.754 58.5374 138.538 58.6108 138.363 58.7476C138.272 58.8203 138.201 58.9142 138.155 59.021C138.109 59.1278 138.09 59.2443 138.1 59.3601C138.095 59.4481 138.108 59.5362 138.137 59.6193C138.166 59.7023 138.212 59.7787 138.271 59.8441C138.207 59.8441 138.144 59.8568 138.084 59.8815C138.025 59.9062 137.972 59.9424 137.927 59.988C137.882 60.0336 137.846 60.0876 137.822 60.1471C137.798 60.2065 137.786 60.2701 137.787 60.3341V60.3709H139.214C139.278 60.3709 139.341 60.3584 139.4 60.3341C139.458 60.3097 139.512 60.2741 139.557 60.2292C139.602 60.1842 139.637 60.1309 139.662 60.0721C139.686 60.0134 139.698 59.9505 139.698 59.887V59.8441H139.184C139.055 59.8481 138.929 59.8117 138.822 59.7399" fill="#E6ECD1"/>
<path d="M114.172 64.4566C113.48 64.4446 112.802 64.648 112.23 65.0385L111.992 65.2039V61.6448C111.984 61.4964 111.919 61.3568 111.81 61.2552C111.702 61.1536 111.558 61.0979 111.41 61.0997H110.883V68.2362H108.873C108.644 68.2363 108.414 68.2178 108.187 68.1811H108.059V65.0018C108.044 64.8553 107.977 64.719 107.87 64.6177C107.764 64.5165 107.624 64.4571 107.477 64.4505H106.95V68.1934H106.815C106.612 68.2196 106.407 68.2339 106.203 68.2362H94.8515V66.7783C94.8515 65.3755 94.0796 64.5056 92.8361 64.5056C91.4455 64.5056 90.7104 65.3203 90.7104 66.864V70.5395C90.7104 70.6314 90.7104 70.6437 90.7104 70.6437H89.0075C88.8872 70.653 88.7663 70.653 88.646 70.6437L88.4684 70.6008L88.2969 70.5457C87.8459 70.3904 87.4565 70.095 87.1854 69.7027C86.9142 69.3103 86.7757 68.8416 86.7899 68.3649C86.7694 67.704 86.9747 67.0558 87.3718 66.5271H87.1574C86.0793 66.5271 85.9323 67.6481 85.9323 68.322C85.9175 68.7962 86.0039 69.2682 86.1855 69.7065C86.3672 70.1448 86.64 70.5394 86.9859 70.8642L87.0839 70.95C87.3254 71.1516 87.6044 71.3036 87.9048 71.3972C88.268 71.5086 88.6459 71.5643 89.0258 71.5626H91.8376V66.6619C91.8743 65.9084 92.1561 65.5776 92.7442 65.5776C93.4425 65.5776 93.7427 65.9636 93.7427 66.8702V68.224C93.7427 68.7631 93.9387 69.1061 94.2818 69.1735C94.4143 69.183 94.5474 69.183 94.6799 69.1735H106.215C106.858 69.1735 107.25 69.1735 107.44 68.8917L107.569 68.7324L107.697 68.8917C107.863 69.1551 108.255 69.1735 108.922 69.1735H116.831C116.972 68.5094 117.034 67.8307 117.015 67.152C117.023 66.7876 116.956 66.4255 116.817 66.0885C116.678 65.7516 116.471 65.4471 116.208 65.1943C115.946 64.9416 115.633 64.746 115.291 64.6201C114.949 64.4942 114.585 64.4406 114.221 64.4627M116.059 68.2546H111.894C111.819 67.7126 111.85 67.1614 111.985 66.6313C112.212 66.1351 112.598 65.4796 114.031 65.4796C115.465 65.4796 115.777 66.1351 115.992 66.6313C116.113 67.1637 116.136 67.7139 116.059 68.2546Z" fill="#E6ECD1"/>
<path d="M138.83 61.0989H138.278V68.3702C138.278 68.9277 138.578 69.1666 138.995 69.1666H139.387V61.6441C139.383 61.5679 139.364 61.4932 139.331 61.4244C139.298 61.3556 139.252 61.2941 139.195 61.2433C139.138 61.1926 139.071 61.1537 138.999 61.1289C138.927 61.1041 138.851 61.0939 138.775 61.0989" fill="#E6ECD1"/>
<path d="M135.546 64.4317H135.019V68.2481H122.204V65.1852C122.202 65.0958 122.187 65.0072 122.161 64.9217L122.13 64.8482C122.069 64.7147 121.966 64.6045 121.837 64.5339C121.708 64.4633 121.559 64.4361 121.414 64.4562H120.58C119.355 64.4562 118.663 65.5527 118.663 66.9371C118.663 67.8989 118.945 69.3385 120.158 69.1731H120.268C120.417 69.1591 120.554 69.0867 120.649 68.9719C120.744 68.8571 120.79 68.7091 120.776 68.5605V68.2481H120.617C120.005 68.2481 119.594 67.954 119.594 67.0229C119.594 65.6997 119.999 65.4241 120.568 65.4241H120.672C120.732 65.4241 120.792 65.436 120.847 65.4591C120.903 65.4823 120.953 65.5162 120.995 65.559C121.037 65.6017 121.071 65.6524 121.093 65.7081C121.115 65.7638 121.126 65.8235 121.126 65.8835V69.3078C121.126 70.1777 120.746 70.6188 120.023 70.6188C119.785 70.62 119.549 70.5806 119.325 70.5024V70.7903C119.325 71.1517 119.582 71.5376 120.317 71.5376C120.577 71.5456 120.836 71.4983 121.076 71.3989C121.316 71.2995 121.533 71.1501 121.711 70.9608C121.89 70.7714 122.026 70.5464 122.111 70.3005C122.196 70.0546 122.227 69.7935 122.204 69.5345V69.1669H134.817C136.042 69.1669 136.128 68.7198 136.128 68.3093V64.983C136.121 64.8335 136.057 64.6924 135.949 64.5894C135.84 64.4865 135.695 64.43 135.546 64.4317Z" fill="#E6ECD1"/>
<path d="M88.5899 72.4328C88.4989 72.4239 88.407 72.4342 88.3203 72.463C88.2335 72.4918 88.1537 72.5384 88.086 72.5998C88.0183 72.6612 87.9642 72.7362 87.9272 72.8197C87.8902 72.9033 87.8711 72.9937 87.8711 73.0852C87.8711 73.1766 87.8902 73.267 87.9272 73.3505C87.9642 73.4341 88.0183 73.509 88.086 73.5705C88.1537 73.6319 88.2335 73.6785 88.3203 73.7073C88.407 73.7361 88.4989 73.7464 88.5899 73.7376C88.6775 73.7408 88.7648 73.7265 88.8468 73.6954C88.9288 73.6643 89.0037 73.6171 89.0671 73.5566C89.1305 73.496 89.1811 73.4234 89.2159 73.3429C89.2507 73.2625 89.2691 73.1759 89.2698 73.0882C89.2683 72.9159 89.1995 72.751 89.0783 72.6286C88.957 72.5062 88.7928 72.4359 88.6205 72.4328" fill="#E6ECD1"/>
<path d="M90.2334 72.4328C90.1424 72.4239 90.0506 72.4342 89.9638 72.463C89.8771 72.4918 89.7973 72.5384 89.7296 72.5998C89.6619 72.6612 89.6078 72.7362 89.5708 72.8197C89.5338 72.9033 89.5146 72.9937 89.5146 73.0852C89.5146 73.1766 89.5338 73.267 89.5708 73.3505C89.6078 73.4341 89.6619 73.509 89.7296 73.5705C89.7973 73.6319 89.8771 73.6785 89.9638 73.7073C90.0506 73.7361 90.1424 73.7464 90.2334 73.7376C90.4056 73.7376 90.5708 73.6691 90.6926 73.5474C90.8143 73.4256 90.8828 73.2604 90.8828 73.0882C90.8812 72.9159 90.8125 72.751 90.6912 72.6286C90.5699 72.5062 90.4057 72.4359 90.2334 72.4328Z" fill="#E6ECD1"/>
<path d="M107.452 70.0363C107.361 70.0274 107.269 70.0377 107.183 70.0665C107.096 70.0953 107.016 70.1419 106.948 70.2033C106.881 70.2648 106.827 70.3397 106.79 70.4233C106.753 70.5068 106.733 70.5973 106.733 70.6887C106.733 70.7801 106.753 70.8705 106.79 70.9541C106.827 71.0376 106.881 71.1126 106.948 71.174C107.016 71.2355 107.096 71.2821 107.183 71.3108C107.269 71.3396 107.361 71.3499 107.452 71.3411C107.624 71.3411 107.79 71.2727 107.911 71.1509C108.033 71.0291 108.101 70.8639 108.101 70.6917C108.1 70.5194 108.031 70.3545 107.91 70.2321C107.789 70.1097 107.624 70.0394 107.452 70.0363Z" fill="#E6ECD1"/>
<path d="M135.296 70.048C135.205 70.0392 135.113 70.0495 135.026 70.0782C134.94 70.107 134.86 70.1536 134.792 70.215C134.724 70.2765 134.67 70.3514 134.633 70.435C134.596 70.5186 134.577 70.609 134.577 70.7004C134.577 70.7918 134.596 70.8822 134.633 70.9658C134.67 71.0494 134.724 71.1243 134.792 71.1857C134.86 71.2472 134.94 71.2938 135.026 71.3225C135.113 71.3513 135.205 71.3616 135.296 71.3528C135.468 71.3512 135.632 71.2823 135.753 71.1608C135.875 71.0394 135.944 70.8752 135.945 70.7034C135.944 70.5311 135.875 70.3663 135.754 70.2438C135.632 70.1214 135.468 70.0512 135.296 70.048Z" fill="#E6ECD1"/>
<path d="M114.038 63.6525C114.212 63.6493 114.378 63.5784 114.5 63.4548C114.623 63.3312 114.692 63.1648 114.693 62.9909C114.69 62.8192 114.62 62.6556 114.497 62.5353C114.375 62.415 114.21 62.3476 114.038 62.3477C113.867 62.3476 113.703 62.4152 113.581 62.5357C113.459 62.6561 113.39 62.8197 113.389 62.9909C113.389 63.1642 113.457 63.3307 113.578 63.4544C113.7 63.5781 113.865 63.6492 114.038 63.6525Z" fill="#E6ECD1"/>
<path d="M20.9617 65.4416V67.3773C20.9617 67.9593 21.317 68.2533 22.0276 68.2533H22.8729C23.8592 68.2533 24.484 67.7878 24.484 66.8505C24.484 65.8214 23.9756 65.4416 22.6463 65.4416H20.9617ZM20.9617 64.5411H22.6095C23.7367 64.5411 24.3676 64.2164 24.3676 63.2547C24.3676 62.2929 23.755 62.0295 22.683 62.0295H22.0153C21.6601 62.0389 21.3069 62.0862 20.9617 62.1704V64.5411ZM22.9342 69.2273H21.9847C20.4839 69.2273 19.8896 68.5167 19.8896 67.4202V61.3679C20.5264 61.1751 21.1851 61.0639 21.8499 61.0371H22.9219C24.5453 61.0371 25.4335 61.9744 25.4335 63.1505C25.4615 63.5739 25.3298 63.9924 25.0645 64.3235C24.7992 64.6546 24.4194 64.8743 24.0001 64.9393C24.4361 65.0163 24.8324 65.241 25.1224 65.5757C25.4124 65.9103 25.5785 66.3344 25.5928 66.777C25.5928 68.284 24.4411 69.2273 22.9342 69.2273Z" fill="#E6ECD1"/>
<path d="M27.7129 61.0996H28.0927C28.6134 61.0996 28.8033 61.3079 28.8033 61.9511V65.4306C28.8033 67.4337 29.471 68.2791 30.9779 68.2791C32.4849 68.2791 33.0791 67.4582 33.0791 65.5225V61.0996H33.5263C33.9796 61.0996 34.2001 61.3569 34.2001 61.8898V65.4306C34.2001 67.8809 33.0607 69.2898 30.9351 69.2898C28.8094 69.2898 27.7435 67.9115 27.7435 65.5225L27.7129 61.0996Z" fill="#E6ECD1"/>
<path d="M43.2456 62.0111H42.7862C42.4512 62.0201 42.1173 62.0549 41.7877 62.1153V67.2058C41.7877 67.947 42.1797 68.2533 42.9271 68.2533H43.3681C45.0405 68.2533 46.0145 67.0282 46.0145 65.1904C46.0145 63.0157 44.9547 61.9866 43.2456 61.9866M43.4845 69.2028H42.7617C41.3956 69.2028 40.6973 68.5167 40.6973 67.4815V61.276C41.2872 61.1316 41.8911 61.0515 42.4983 61.0371H43.509C45.457 61.0371 47.1049 62.6176 47.1049 65.0495C47.1049 67.4815 45.5979 69.2273 43.4845 69.2273" fill="#E6ECD1"/>
<path d="M55.2385 69.1654C55.1383 69.1633 55.0397 69.1406 54.9488 69.0987C54.8578 69.0568 54.7765 68.9966 54.7098 68.9219C54.6431 68.8472 54.5926 68.7596 54.5613 68.6644C54.53 68.5693 54.5186 68.4687 54.5279 68.369V65.4531H50.4542V69.1654H50.0683C49.9694 69.1627 49.8721 69.1394 49.7827 69.0969C49.6933 69.0545 49.6138 68.9938 49.5492 68.9189C49.4846 68.8439 49.4364 68.7563 49.4076 68.6616C49.3789 68.5669 49.3702 68.4673 49.3822 68.369V61.0977H49.9641C50.0338 61.0984 50.1027 61.1133 50.1665 61.1414C50.2303 61.1695 50.2877 61.2103 50.3352 61.2613C50.3828 61.3123 50.4195 61.3724 50.4431 61.438C50.4667 61.5036 50.4767 61.5733 50.4726 61.6429V64.4546H54.5462V61.0977H55.0669C55.1393 61.0969 55.2112 61.1103 55.2784 61.1373C55.3456 61.1643 55.4068 61.2042 55.4586 61.2548C55.5104 61.3055 55.5516 61.3658 55.5801 61.4324C55.6085 61.499 55.6236 61.5705 55.6244 61.6429V69.1654H55.2385Z" fill="#E6ECD1"/>
<path d="M66.9116 65.4416V67.3773C66.9116 67.9593 67.273 68.2533 67.9836 68.2533H68.8228C69.8091 68.2533 70.4401 67.7878 70.4401 66.8505C70.4401 65.8214 69.9316 65.4416 68.6023 65.4416H66.9116ZM66.9116 64.5411H68.5656C69.6927 64.5411 70.3237 64.2164 70.3237 63.2547C70.3237 62.2929 69.7111 62.0295 68.6329 62.0295H67.9714C67.6141 62.0385 67.2588 62.0857 66.9116 62.1704V64.5411ZM68.8841 69.2273H67.9346C66.4399 69.2273 65.8457 68.5167 65.8457 67.4202V61.3679C66.4825 61.1751 67.1412 61.0639 67.806 61.0371H68.8719C70.5013 61.0371 71.3896 61.9744 71.3896 63.1505C71.4161 63.5736 71.2839 63.9914 71.0188 64.3222C70.7538 64.653 70.3748 64.873 69.9561 64.9393C70.3915 65.0165 70.787 65.2415 71.076 65.5762C71.365 65.9109 71.5298 66.335 71.5427 66.777C71.5427 68.284 70.3911 69.2273 68.8841 69.2273Z" fill="#E6ECD1"/>
<path d="M74.569 69.1655C74.1524 69.1655 73.8584 68.9266 73.8584 68.3691V61.0978H74.3791C74.5281 61.0945 74.6726 61.1497 74.7814 61.2516C74.8902 61.3535 74.9547 61.494 74.9611 61.643V69.1655H74.569Z" fill="#E6ECD1"/>
<path d="M61.7056 61.9982C61.3625 61.3856 61.0624 61.0977 60.6152 61.0977H60.2538C59.0286 62.6169 57.4053 67.5298 57.4053 68.6447C57.4053 69.0122 57.5523 69.1654 57.8953 69.1654H58.3119C58.4283 68.5038 58.6427 67.6216 58.7958 67.0274L59.047 66.1637C59.4136 64.7348 59.959 63.3579 60.6703 62.0655C61.3791 63.3619 61.9322 64.7375 62.3182 66.1637H59.4145V66.47C59.4145 66.8069 59.6351 67.0274 60.1251 67.0274H62.5755C62.6735 67.4195 62.8511 68.0382 62.9553 68.5957C62.9658 68.6826 62.9936 68.7666 63.0371 68.8427C63.0806 68.9187 63.139 68.9852 63.2086 69.0383C63.2783 69.0914 63.3579 69.1301 63.4428 69.1519C63.5276 69.1737 63.616 69.1783 63.7026 69.1654H64.0947C63.6499 66.6731 62.8451 64.2588 61.7056 61.9982Z" fill="#E6ECD1"/>
<path d="M15.761 62.0001C15.418 61.3875 15.1484 61.0996 14.6706 61.0996H14.3153C13.0902 62.6188 11.4668 67.5317 11.4668 68.6466C11.4668 69.0142 11.6077 69.1673 11.9507 69.1673H12.3673C12.4837 68.5057 12.6981 67.6236 12.8512 67.0294L13.1024 66.1657C13.4711 64.7365 14.0186 63.3596 14.7319 62.0675C15.436 63.3653 15.987 64.7406 16.3736 66.1657H13.47V66.472C13.47 66.8089 13.6966 67.0294 14.1867 67.0294H16.637C16.7289 67.4214 16.9065 68.0402 17.0168 68.5976C17.0265 68.6849 17.0538 68.7694 17.097 68.8458C17.1403 68.9223 17.1987 68.9892 17.2685 69.0424C17.3384 69.0957 17.4183 69.1342 17.5035 69.1557C17.5887 69.1772 17.6774 69.1811 17.7641 69.1673H18.1562C17.7145 66.6743 16.9096 64.2595 15.7671 62.0001" fill="#E6ECD1"/>
</g>
</g>
<defs>
<clipPath id="clip0_215_7431">
<rect width="149" height="81" fill="white"/>
</clipPath>
</defs>
</svg>
