<svg width="16" height="16" viewBox="0 0 16 16" fill="none" xmlns="http://www.w3.org/2000/svg">
<g clip-path="url(#clip0_3158_2025)">
<path d="M14.8572 7.42773H10.2858C9.9702 7.42773 9.71436 7.68357 9.71436 7.99916V14.8563C9.71436 15.1718 9.9702 15.4277 10.2858 15.4277H14.8572C15.1728 15.4277 15.4286 15.1718 15.4286 14.8563V7.99916C15.4286 7.68357 15.1728 7.42773 14.8572 7.42773Z" stroke="#2563C0" stroke-width="1.14286" stroke-linecap="round" stroke-linejoin="round"/>
<path d="M14.8572 0.572266H10.2858C9.9702 0.572266 9.71436 0.828103 9.71436 1.14369V3.44084C9.71436 3.75642 9.9702 4.01226 10.2858 4.01226H14.8572C15.1728 4.01226 15.4286 3.75642 15.4286 3.44084V1.14369C15.4286 0.828103 15.1728 0.572266 14.8572 0.572266Z" stroke="#2563C0" stroke-width="1.14286" stroke-linecap="round" stroke-linejoin="round"/>
<path d="M5.71415 0.572266H1.14272C0.827127 0.572266 0.571289 0.828103 0.571289 1.14369V8.00084C0.571289 8.31643 0.827127 8.57227 1.14272 8.57227H5.71415C6.02974 8.57227 6.28558 8.31643 6.28558 8.00084V1.14369C6.28558 0.828103 6.02974 0.572266 5.71415 0.572266Z" stroke="#2563C0" stroke-width="1.14286" stroke-linecap="round" stroke-linejoin="round"/>
<path d="M5.71415 11.9902H1.14272C0.827127 11.9902 0.571289 12.246 0.571289 12.5617V14.8588C0.571289 15.1743 0.827127 15.4302 1.14272 15.4302H5.71415C6.02974 15.4302 6.28558 15.1743 6.28558 14.8588V12.5617C6.28558 12.246 6.02974 11.9902 5.71415 11.9902Z" stroke="#2563C0" stroke-width="1.14286" stroke-linecap="round" stroke-linejoin="round"/>
</g>
<defs>
<clipPath id="clip0_3158_2025">
<rect width="16" height="16" fill="white"/>
</clipPath>
</defs>
</svg>
