<svg width="28" height="28" viewBox="0 0 28 28" fill="none" xmlns="http://www.w3.org/2000/svg">
<path fill-rule="evenodd" clip-rule="evenodd" d="M17.2283 3.17731C17.2276 2.41209 16.951 1.67277 16.4493 1.095C15.9476 0.517219 15.2543 0.139735 14.4967 0.0318006C13.7392 -0.076134 12.9681 0.0927192 12.3249 0.507381C11.6818 0.922043 11.2098 1.5547 10.9954 2.28929C10.7811 3.02388 10.8388 3.81112 11.158 4.50659C11.4772 5.20207 12.0364 5.75912 12.7332 6.07555C13.4299 6.39199 14.2174 6.44658 14.9511 6.22932C15.6848 6.01206 16.3156 5.53751 16.7277 4.89273C17.0556 4.38076 17.2294 3.78529 17.2283 3.17731ZM19.4919 26.4101L18.5561 22.0687C18.5529 22.0541 18.5508 22.0395 18.5489 22.0252L17.7615 17.6371L17.1222 13.2073C17.1187 13.1837 17.1173 13.1598 17.1178 13.136C17.101 12.6612 17.2482 12.195 17.5347 11.816L17.5568 11.7889C17.8471 11.421 18.2581 11.1676 18.7172 11.0734L18.743 11.0691C19.7953 10.8927 20.8329 10.6374 21.8469 10.3053C22.8377 9.94979 23.7968 9.51145 24.714 8.99493C24.906 8.81276 25.0336 8.57321 25.0777 8.31229C25.1219 8.05138 25.0802 7.78318 24.9589 7.54799C24.8368 7.31288 24.6377 7.12682 24.3948 7.02099C24.1376 6.90894 23.8509 6.8835 23.5779 6.9485H23.5754C20.1676 7.98945 17.1776 8.56094 14.1456 8.58241C11.1083 8.60388 8.04328 8.07438 4.49049 6.91335C4.22666 6.85481 3.95086 6.88526 3.70616 6.99996C3.46146 7.11466 3.26161 7.30714 3.13782 7.54737C3.01066 7.79884 2.96998 8.08522 3.02209 8.36215C3.06725 8.61866 3.19224 8.85438 3.37923 9.03569C4.29579 9.53587 5.25067 9.96239 6.23484 10.3112C7.2487 10.6408 8.28595 10.8935 9.33778 11.0672L9.34836 11.0691C9.82159 11.1676 10.2417 11.4375 10.5281 11.8269C10.8181 12.22 10.9642 12.7009 10.9418 13.1889C10.9413 13.2037 10.9399 13.2184 10.9378 13.2331L10.2985 17.6371C10.2963 17.6523 10.2934 17.6675 10.2898 17.6825C9.76555 20.6028 9.26311 23.5623 8.59487 26.4528C8.54806 26.6718 8.56107 26.8994 8.63251 27.1117C8.72608 27.3903 8.91108 27.6291 9.15748 27.7893C9.40387 27.9495 9.6972 28.0218 9.98982 27.9943C10.2824 27.9668 10.5572 27.8412 10.7694 27.6379C10.9817 27.4346 11.1189 27.1655 11.159 26.8743C11.1611 26.8583 11.164 26.8424 11.1677 26.8267L13.2648 18.3731L13.2751 18.338C13.3252 18.1704 13.4285 18.0236 13.5693 17.92C13.7102 17.8163 13.8811 17.7613 14.056 17.7634H14.0578C14.2383 17.7654 14.4129 17.8278 14.5538 17.9406C14.6948 18.0533 14.7939 18.2099 14.8356 18.3856L16.929 26.8258C16.9339 26.8454 16.9374 26.8654 16.9396 26.8855C16.9651 27.0582 17.0251 27.2239 17.1161 27.3729C17.2071 27.5218 17.3271 27.6509 17.4691 27.7525C17.611 27.854 17.772 27.926 17.9423 27.964C18.1126 28.002 18.2889 28.0053 18.4606 27.9737C18.6322 27.9422 18.7958 27.8763 18.9414 27.7802C19.0871 27.684 19.2119 27.5595 19.3084 27.4141C19.4049 27.2687 19.4711 27.1053 19.5031 26.9337C19.5351 26.7621 19.5322 26.5859 19.4947 26.4154V26.4117L19.4919 26.4101Z" fill="#F7A525"/>
</svg>
