<svg width="30" height="30" viewBox="0 0 30 30" fill="none" xmlns="http://www.w3.org/2000/svg">
<g clip-path="url(#clip0_585_22535)">
<path d="M7.54757 13.7006C10.9587 13.7006 13.724 10.9353 13.724 7.52413C13.724 4.11297 10.9587 1.34766 7.54757 1.34766C4.1364 1.34766 1.37109 4.11297 1.37109 7.52413C1.37109 10.9353 4.1364 13.7006 7.54757 13.7006Z" stroke="#18142B" stroke-opacity="0.5" stroke-width="2.05882" stroke-linecap="round" stroke-linejoin="round"/>
<path d="M21.9594 13.7021C24.2336 13.7021 26.0771 11.8586 26.0771 9.58444C26.0771 7.31033 24.2336 5.4668 21.9594 5.4668C19.6853 5.4668 17.8418 7.31033 17.8418 9.58444C17.8418 11.8586 19.6853 13.7021 21.9594 13.7021Z" stroke="#18142B" stroke-opacity="0.5" stroke-width="2.05882" stroke-linecap="round" stroke-linejoin="round"/>
<path d="M20.9292 18.8457H9.6057C8.46865 18.8457 7.54688 19.7675 7.54688 20.9045V26.0516C7.54688 27.1887 8.46865 28.1104 9.6057 28.1104H20.9292C22.0663 28.1104 22.9881 27.1887 22.9881 26.0516V20.9045C22.9881 19.7675 22.0663 18.8457 20.9292 18.8457Z" stroke="#18142B" stroke-opacity="0.5" stroke-width="2.05882" stroke-linecap="round" stroke-linejoin="round"/>
<path d="M28.1348 20.9043V26.0514" stroke="#18142B" stroke-opacity="0.5" stroke-width="2.05882" stroke-linecap="round" stroke-linejoin="round"/>
</g>
<defs>
<clipPath id="clip0_585_22535">
<rect width="28.8235" height="28.8235" fill="white" transform="translate(0.341797 0.318359)"/>
</clipPath>
</defs>
</svg>
