<svg width="21" height="20" viewBox="0 0 21 20" fill="none" xmlns="http://www.w3.org/2000/svg">
<g clip-path="url(#clip0_1450_9194)">
<path d="M1.05566 0.714844H4.54448L5.78734 13.072C5.839 13.4126 6.01202 13.7231 6.27455 13.9463C6.53707 14.1694 6.8714 14.2901 7.21591 14.2863H16.2159C16.5275 14.3026 16.8358 14.2164 17.0936 14.041C17.3516 13.8656 17.5451 13.6105 17.6445 13.3148L19.5445 7.60056C19.6153 7.38573 19.6342 7.15713 19.5993 6.93362C19.5646 6.71009 19.4772 6.49802 19.3445 6.31484C19.2062 6.1201 19.0212 5.96314 18.8066 5.85832C18.5921 5.7535 18.3545 5.70417 18.1159 5.71484H5.04448" stroke="#F7A525" stroke-width="1.42857" stroke-linecap="round" stroke-linejoin="round"/>
<path d="M15.9731 19.286C15.5786 19.286 15.2588 18.9661 15.2588 18.5717C15.2588 18.1773 15.5786 17.8574 15.9731 17.8574C16.3675 17.8574 16.6874 18.1773 16.6874 18.5717C16.6874 18.9661 16.3675 19.286 15.9731 19.286Z" stroke="#F7A525" stroke-width="1.42857" stroke-linecap="round" stroke-linejoin="round"/>
<path d="M6.68694 19.286C6.29244 19.286 5.97266 18.9661 5.97266 18.5717C5.97266 18.1773 6.29244 17.8574 6.68694 17.8574C7.08143 17.8574 7.40123 18.1773 7.40123 18.5717C7.40123 18.9661 7.08143 19.286 6.68694 19.286Z" stroke="#F7A525" stroke-width="1.42857" stroke-linecap="round" stroke-linejoin="round"/>
</g>
<defs>
<clipPath id="clip0_1450_9194">
<rect width="20" height="20" fill="white" transform="translate(0.330078)"/>
</clipPath>
</defs>
</svg>
