<svg width="29" height="28" viewBox="0 0 29 28" fill="none" xmlns="http://www.w3.org/2000/svg">
<g clip-path="url(#clip0_585_21933)">
<path d="M1.51562 1H6.39997L8.13997 18.3C8.21229 18.7769 8.45453 19.2116 8.82207 19.524C9.18959 19.8364 9.65765 20.0054 10.14 20H22.74C23.1762 20.0228 23.6078 19.9021 23.9688 19.6566C24.33 19.411 24.6008 19.054 24.74 18.64L27.4 10.64C27.4992 10.3392 27.5256 10.0192 27.4768 9.70628C27.4282 9.39334 27.3058 9.09644 27.12 8.84C26.9264 8.56736 26.6674 8.34762 26.367 8.20086C26.0666 8.05412 25.734 7.98506 25.4 8H7.09997" stroke="#891AFF" stroke-width="2.06" stroke-linecap="round" stroke-linejoin="round"/>
<path d="M22.4004 27C21.8482 27 21.4004 26.5522 21.4004 26C21.4004 25.4478 21.8482 25 22.4004 25C22.9526 25 23.4004 25.4478 23.4004 26C23.4004 26.5522 22.9526 27 22.4004 27Z" stroke="#891AFF" stroke-width="2.06" stroke-linecap="round" stroke-linejoin="round"/>
<path d="M9.40039 27C8.84809 27 8.40039 26.5522 8.40039 26C8.40039 25.4478 8.84809 25 9.40039 25C9.95267 25 10.4004 25.4478 10.4004 26C10.4004 26.5522 9.95267 27 9.40039 27Z" stroke="#891AFF" stroke-width="2.06" stroke-linecap="round" stroke-linejoin="round"/>
</g>
<defs>
<clipPath id="clip0_585_21933">
<rect width="28" height="28" fill="white" transform="translate(0.5)"/>
</clipPath>
</defs>
</svg>
