<svg width="29" height="30" viewBox="0 0 29 30" fill="none" xmlns="http://www.w3.org/2000/svg">
<g clip-path="url(#clip0_899_27234)">
<path d="M19.0449 10.8809C21.3656 10.8809 23.5911 11.8027 25.232 13.4437C26.8729 15.0846 27.7948 17.3102 27.7948 19.6309C27.8004 21.3533 27.2913 23.038 26.3331 24.4691L27.7948 28.3809L22.8743 27.4956C21.6908 28.0727 20.3926 28.3753 19.076 28.3809C17.7594 28.3864 16.4586 28.0947 15.2704 27.5277C14.0822 26.9607 13.0373 26.1326 12.2135 25.1057C11.3897 24.0787 10.8083 22.8791 10.5126 21.596C10.2169 20.3131 10.2145 18.98 10.5057 17.696C10.7968 16.412 11.3739 15.2103 12.194 14.1803C13.0142 13.1504 14.0561 12.3188 15.2423 11.7475C16.4285 11.1762 17.7283 10.88 19.0449 10.8809Z" stroke="white" stroke-width="2.05882" stroke-linecap="round" stroke-linejoin="round"/>
<path d="M20.3009 5.75505C18.9144 3.99078 17.0123 2.70274 14.8595 2.07025C12.7066 1.43777 10.41 1.49232 8.28961 2.22632C6.16918 2.96032 4.3304 4.33722 3.02925 6.16533C1.72811 7.99342 1.02937 10.1818 1.03032 12.4256C1.02394 14.5586 1.65483 16.6448 2.84208 18.4168L1.03032 23.2344L5.39502 22.452" stroke="white" stroke-width="2.05882" stroke-linecap="round" stroke-linejoin="round"/>
</g>
<defs>
<clipPath id="clip0_899_27234">
<rect width="28.8235" height="28.8235" fill="white" transform="translate(0 0.587891)"/>
</clipPath>
</defs>
</svg>
