<svg width="24" height="24" viewBox="0 0 24 24" fill="none" xmlns="http://www.w3.org/2000/svg">
<g clip-path="url(#clip0_887_18648)">
<path d="M12 22.8711V0.892455C14.9146 0.892455 17.7097 2.05022 19.7706 4.11114C21.8316 6.17206 22.9893 8.96722 22.9893 11.8818C22.9893 14.7963 21.8316 17.5915 19.7706 19.6524C17.7097 21.7133 14.9146 22.8711 12 22.8711Z" stroke="#18142B" stroke-width="1.69066" stroke-linecap="round" stroke-linejoin="round"/>
<path d="M7.58756 1.73927C6.80492 2.07572 6.06673 2.50717 5.3897 3.02418C4.71156 3.51396 4.09308 4.08135 3.54688 4.71484" stroke="#18142B" stroke-width="1.69066" stroke-linecap="round" stroke-linejoin="round"/>
<path d="M7.58756 21.9434C6.80492 21.607 6.06673 21.1755 5.3897 20.6585C4.70772 20.1477 4.08909 19.5574 3.54688 18.9002" stroke="#18142B" stroke-width="1.69066" stroke-linecap="round" stroke-linejoin="round"/>
<path d="M1.29827 9.34988C0.914899 11.0188 0.914899 12.7529 1.29827 14.4219" stroke="#18142B" stroke-width="1.69066" stroke-linecap="round" stroke-linejoin="round"/>
<path d="M12 22.8712V0.892578L17.072 2.58324L20.4533 5.11924L22.144 8.50057L22.9893 12.7272L21.2987 17.7992L17.072 21.1806L12 22.8712Z" fill="#18142B" stroke="#18142B" stroke-width="1.69066"/>
</g>
<defs>
<clipPath id="clip0_887_18648">
<rect width="23.6693" height="23.6693" fill="white" transform="matrix(0 -1 1 0 0.165039 23.7168)"/>
</clipPath>
</defs>
</svg>
