<svg width="30" height="30" viewBox="0 0 30 30" fill="none" xmlns="http://www.w3.org/2000/svg">
<g clip-path="url(#clip0_585_22519)">
<path d="M27.1085 14.2812H18.8732C18.3046 14.2812 17.8438 14.7421 17.8438 15.3107V27.6636C17.8438 28.2321 18.3046 28.693 18.8732 28.693H27.1085C27.6769 28.693 28.1379 28.2321 28.1379 27.6636V15.3107C28.1379 14.7421 27.6769 14.2812 27.1085 14.2812Z" stroke="#18142B" stroke-opacity="0.5" stroke-width="2.05882" stroke-linecap="round" stroke-linejoin="round"/>
<path d="M27.1085 1.92773H18.8732C18.3046 1.92773 17.8438 2.38862 17.8438 2.95715V7.09538C17.8438 7.66391 18.3046 8.1248 18.8732 8.1248H27.1085C27.6769 8.1248 28.1379 7.66391 28.1379 7.09538V2.95715C28.1379 2.38862 27.6769 1.92773 27.1085 1.92773Z" stroke="#18142B" stroke-opacity="0.5" stroke-width="2.05882" stroke-linecap="round" stroke-linejoin="round"/>
<path d="M10.6378 1.92773H2.40246C1.83393 1.92773 1.37305 2.38862 1.37305 2.95715V15.3101C1.37305 15.8786 1.83393 16.3395 2.40246 16.3395H10.6378C11.2063 16.3395 11.6672 15.8786 11.6672 15.3101V2.95715C11.6672 2.38862 11.2063 1.92773 10.6378 1.92773Z" stroke="#18142B" stroke-opacity="0.5" stroke-width="2.05882" stroke-linecap="round" stroke-linejoin="round"/>
<path d="M10.6378 22.4941H2.40246C1.83393 22.4941 1.37305 22.9549 1.37305 23.5236V27.6618C1.37305 28.2302 1.83393 28.6912 2.40246 28.6912H10.6378C11.2063 28.6912 11.6672 28.2302 11.6672 27.6618V23.5236C11.6672 22.9549 11.2063 22.4941 10.6378 22.4941Z" stroke="#18142B" stroke-opacity="0.5" stroke-width="2.05882" stroke-linecap="round" stroke-linejoin="round"/>
</g>
<defs>
<clipPath id="clip0_585_22519">
<rect width="28.8235" height="28.8235" fill="white" transform="translate(0.342773 0.900391)"/>
</clipPath>
</defs>
</svg>
