<svg width="46" height="46" viewBox="0 0 46 46" fill="none" xmlns="http://www.w3.org/2000/svg">
<rect x="0.955078" y="0.929688" width="44.8146" height="44.8146" rx="22.4073" fill="#15BF35"/>
<path d="M23.3631 44.6246C11.6252 44.6246 2.07617 35.0756 2.07617 23.3377C2.07617 11.5999 11.6252 2.05078 23.3631 2.05078C35.1009 2.05078 44.65 11.5999 44.65 23.3377C44.65 35.0756 35.1009 44.6246 23.3631 44.6246ZM23.3631 3.42413C12.3826 3.42413 3.44952 12.3572 3.44952 23.3377C3.44952 34.3182 12.3826 43.2513 23.3631 43.2513C34.3436 43.2513 43.2767 34.3182 43.2767 23.3377C43.2767 12.3572 34.3436 3.42413 23.3631 3.42413Z" fill="#18142B"/>
<path d="M23.3629 37.7C15.4434 37.7 9 31.2566 9 23.3371C9 22.958 9.30757 22.6504 9.68667 22.6504C10.0658 22.6504 10.3733 22.958 10.3733 23.3371C10.3733 30.4998 16.2003 36.3267 23.3629 36.3267C30.5256 36.3267 36.3526 30.4998 36.3526 23.3371C36.3526 22.958 36.6601 22.6504 37.0392 22.6504C37.4183 22.6504 37.7259 22.958 37.7259 23.3371C37.7259 31.2566 31.2825 37.7 23.3629 37.7Z" fill="#18142B"/>
<path d="M28.7988 24.0239C26.9699 24.0239 25.5371 21.6107 25.5371 18.5305C25.5371 15.4503 26.9699 13.0371 28.7988 13.0371C30.6277 13.0371 32.0605 15.4503 32.0605 18.5305C32.0605 21.6107 30.6277 24.0239 28.7988 24.0239ZM28.7988 14.4105C27.9074 14.4105 26.9105 16.1723 26.9105 18.5305C26.9105 20.8887 27.9074 22.6506 28.7988 22.6506C29.6902 22.6506 30.6872 20.8887 30.6872 18.5305C30.6872 16.1723 29.6902 14.4105 28.7988 14.4105Z" fill="#18142B"/>
<path d="M17.9258 24.0239C16.0969 24.0239 14.6641 21.6107 14.6641 18.5305C14.6641 15.4503 16.0969 13.0371 17.9258 13.0371C19.7547 13.0371 21.1875 15.4503 21.1875 18.5305C21.1875 21.6107 19.7547 24.0239 17.9258 24.0239ZM17.9258 14.4105C17.0343 14.4105 16.0374 16.1723 16.0374 18.5305C16.0374 20.8887 17.0343 22.6506 17.9258 22.6506C18.8172 22.6506 19.8141 20.8887 19.8141 18.5305C19.8141 16.1723 18.8172 14.4105 17.9258 14.4105Z" fill="#18142B"/>
</svg>
