<svg width="28" height="29" viewBox="0 0 28 29" fill="none" xmlns="http://www.w3.org/2000/svg">
<g clip-path="url(#clip0_585_22490)">
<path d="M26.512 26.9964H25.5305C24.4893 26.9964 23.4907 26.5828 22.7543 25.8465C22.018 25.1101 21.6044 24.1115 21.6044 23.0703C21.6044 24.1115 21.1908 25.1101 20.4544 25.8465C19.7181 26.5828 18.7195 26.9964 17.6782 26.9964C16.637 26.9964 15.6383 26.5828 14.9021 25.8465C14.1657 25.1101 13.7521 24.1115 13.7521 23.0703C13.7521 24.1115 13.3385 25.1101 12.6022 25.8465C11.8659 26.5828 10.8672 26.9964 9.82598 26.9964C8.78471 26.9964 7.78608 26.5828 7.04979 25.8465C6.31349 25.1101 5.89985 24.1115 5.89985 23.0703C5.89985 24.1115 5.48621 25.1101 4.74991 25.8465C4.01362 26.5828 3.01499 26.9964 1.97372 26.9964H0.992188" stroke="#0052CC" stroke-width="1.96306" stroke-linecap="round" stroke-linejoin="round"/>
<path d="M19.6419 19.144C18.6309 17.9148 17.3602 16.9248 15.921 16.2451C14.4819 15.5654 12.9101 15.2129 11.3185 15.2129C9.72694 15.2129 8.15513 15.5654 6.71601 16.2451C5.27687 16.9248 4.00615 17.9148 2.99512 19.144" stroke="#0052CC" stroke-width="1.96306" stroke-linecap="round" stroke-linejoin="round"/>
<path d="M12.7705 15.3159C12.8883 10.8794 14.2428 6.83548 17.1874 5.38281" stroke="#0052CC" stroke-width="1.96306" stroke-linecap="round" stroke-linejoin="round"/>
<path d="M11.3184 1.65208C12.5909 1.40151 13.911 1.64866 15.0067 2.3426C16.1024 3.03655 16.8901 4.12438 17.2076 5.3819" stroke="#0052CC" stroke-width="1.96306" stroke-linecap="round" stroke-linejoin="round"/>
<path d="M24.3713 6.10855C23.4677 5.13295 22.2393 4.5208 20.9163 4.38706C19.5933 4.25332 18.267 4.6072 17.1865 5.38222" stroke="#0052CC" stroke-width="1.96306" stroke-linecap="round" stroke-linejoin="round"/>
<path d="M9.98438 7.48215C10.7536 6.34888 11.8938 5.51917 13.2087 5.1358C14.5236 4.75241 15.9311 4.83936 17.1888 5.38167C18.4504 5.69021 19.5427 6.477 20.235 7.57589C20.9274 8.67477 21.1655 9.99971 20.8991 11.2709" stroke="#0052CC" stroke-width="1.96306" stroke-linecap="round" stroke-linejoin="round"/>
</g>
<defs>
<clipPath id="clip0_585_22490">
<rect width="27.4829" height="27.4829" fill="beach" transform="translate(0.0136719 0.537109)"/>
</clipPath>
</defs>
</svg>
