<svg width="22" height="22" viewBox="0 0 22 22" fill="none" xmlns="http://www.w3.org/2000/svg">
<path d="M2.56976 10.6257L2.56976 9.9107L2.56976 10.6257ZM1.58985 7.91157L2.02964 8.47532L2.02964 8.47532L1.58985 7.91157ZM20.4102 7.91157L19.9704 8.47532L19.9704 8.47532L20.4102 7.91157ZM19.4302 10.6257L19.4302 11.3407L19.4302 10.6257ZM11.9799 1.33504L12.4197 0.771289L12.4197 0.771289L11.9799 1.33504ZM10.0201 1.33504L10.4599 1.89879L10.0201 1.33504ZM11 15.1463L11 15.8613L11 15.8613L11 15.1463ZM13.75 17.788L14.465 17.788L14.465 17.788L13.75 17.788ZM8.25 17.788L7.535 17.788V17.788H8.25ZM7.535 21C7.535 21.3949 7.85512 21.715 8.25 21.715C8.64488 21.715 8.965 21.3949 8.965 21H7.535ZM13.035 21C13.035 21.3949 13.3551 21.715 13.75 21.715C14.1449 21.715 14.465 21.3949 14.465 21L13.035 21ZM18.6766 10.4661H17.9616V19.4754H18.6766H19.3916V10.4661H18.6766ZM17.11 21V20.285H5.20335V21V21.715H17.11V21ZM3.63669 19.4754H4.35169V10.4661H3.63669H2.92169V19.4754H3.63669ZM5.20335 21V20.285C4.71452 20.285 4.35169 19.9043 4.35169 19.4754H3.63669H2.92169C2.92169 20.7305 3.9617 21.715 5.20335 21.715V21ZM18.6766 19.4754H17.9616C17.9616 19.9043 17.5988 20.285 17.11 20.285V21V21.715C18.3516 21.715 19.3916 20.7305 19.3916 19.4754H18.6766ZM11.9799 1.33504L11.5401 1.89879L19.9704 8.47532L20.4102 7.91157L20.8499 7.34782L12.4197 0.771289L11.9799 1.33504ZM19.4302 10.6257L19.4302 9.9107L2.56976 9.9107L2.56976 10.6257L2.56976 11.3407L19.4302 11.3407L19.4302 10.6257ZM1.58985 7.91157L2.02964 8.47532L10.4599 1.89879L10.0201 1.33504L9.5803 0.77129L1.15006 7.34783L1.58985 7.91157ZM2.56976 10.6257L2.56976 9.9107C1.72513 9.9107 1.44623 8.93045 2.02964 8.47532L1.58985 7.91157L1.15006 7.34783C-0.576274 8.69456 0.454097 11.3407 2.56976 11.3407L2.56976 10.6257ZM20.4102 7.91157L19.9704 8.47532C20.5538 8.93044 20.2749 9.9107 19.4302 9.9107L19.4302 10.6257L19.4302 11.3407C21.5459 11.3407 22.5763 8.69456 20.8499 7.34782L20.4102 7.91157ZM11.9799 1.33504L12.4197 0.771289C11.5886 0.122904 10.4114 0.122904 9.5803 0.77129L10.0201 1.33504L10.4599 1.89879C10.774 1.65374 11.226 1.65374 11.5401 1.89879L11.9799 1.33504ZM11 15.1463L11 15.8613C12.1513 15.8613 13.035 16.7507 13.035 17.788L13.75 17.788L14.465 17.788C14.465 15.9073 12.8863 14.4313 11 14.4313L11 15.1463ZM8.25 17.788L8.965 17.788C8.965 16.7507 9.84874 15.8613 11 15.8613L11 15.1463L11 14.4313C9.11369 14.4313 7.535 15.9073 7.535 17.788L8.25 17.788ZM8.25 21H8.965V17.788H8.25H7.535V21H8.25ZM13.75 17.788L13.035 17.788L13.035 21L13.75 21L14.465 21L14.465 17.788L13.75 17.788Z" fill="#F7A525"/>
</svg>
