<svg width="28" height="28" viewBox="0 0 28 28" fill="none" xmlns="http://www.w3.org/2000/svg">
<g clip-path="url(#clip0_1083_9202)">
<path d="M1.01562 1H5.89997L7.63997 18.3C7.71229 18.7769 7.95453 19.2116 8.32207 19.524C8.68959 19.8364 9.15765 20.0054 9.63997 20H22.24C22.6762 20.0228 23.1078 19.9021 23.4688 19.6566C23.83 19.411 24.1008 19.054 24.24 18.64L26.9 10.64C26.9992 10.3392 27.0256 10.0192 26.9768 9.70628C26.9282 9.39334 26.8058 9.09644 26.62 8.84C26.4264 8.56736 26.1674 8.34762 25.867 8.20086C25.5666 8.05412 25.234 7.98506 24.9 8H6.59997" stroke="#F7A525" stroke-width="2.06" stroke-linecap="round" stroke-linejoin="round"/>
<path d="M21.9004 27C21.3482 27 20.9004 26.5522 20.9004 26C20.9004 25.4478 21.3482 25 21.9004 25C22.4526 25 22.9004 25.4478 22.9004 26C22.9004 26.5522 22.4526 27 21.9004 27Z" stroke="#F7A525" stroke-width="2.06" stroke-linecap="round" stroke-linejoin="round"/>
<path d="M8.90039 27C8.34809 27 7.90039 26.5522 7.90039 26C7.90039 25.4478 8.34809 25 8.90039 25C9.45267 25 9.90039 25.4478 9.90039 26C9.90039 26.5522 9.45267 27 8.90039 27Z" stroke="#F7A525" stroke-width="2.06" stroke-linecap="round" stroke-linejoin="round"/>
</g>
<defs>
<clipPath id="clip0_1083_9202">
<rect width="28" height="28" fill="white"/>
</clipPath>
</defs>
</svg>
