<svg width="26" height="22" viewBox="0 0 26 22" fill="none" xmlns="http://www.w3.org/2000/svg">
<path d="M5.44948 7.2975C3.00894 8.44749 1.33008 10.848 1.33008 13.623C1.33008 15.2056 1.87609 16.6663 2.798 17.8428L1.57954 20.6722C1.52131 20.858 1.69243 21.0354 1.88986 20.9939L5.20275 19.8267C6.24614 20.366 7.44097 20.6722 8.71068 20.6722C10.3877 20.6722 11.934 20.1381 13.1734 19.2381M24.3301 10.0164C24.3301 12.0406 23.6317 13.909 22.4525 15.4137L24.011 19.0328C24.0855 19.2704 23.8666 19.4973 23.6141 19.4442L19.3767 17.9513C18.0421 18.6411 16.5138 19.0328 14.8898 19.0328C9.67605 19.0328 5.44948 14.996 5.44948 10.0164C5.44948 5.03678 9.67605 1 14.8898 1C20.1035 1 24.3301 5.03678 24.3301 10.0164Z" stroke="#F7A525" stroke-width="1.43" stroke-linecap="round" stroke-linejoin="round"/>
</svg>
