<svg width="34" height="35" viewBox="0 0 34 35" fill="none" xmlns="http://www.w3.org/2000/svg">
<g clip-path="url(#clip0_585_24358)">
<path d="M17.001 33.1836V1.6616C21.1811 1.6616 25.1899 3.32208 28.1457 6.27787C31.1015 9.23367 32.762 13.2425 32.762 17.4226C32.762 21.6027 31.1015 25.6115 28.1457 28.5673C25.1899 31.5231 21.1811 33.1836 17.001 33.1836Z" stroke="#18142B" stroke-width="2.42477" stroke-linecap="round" stroke-linejoin="round"/>
<path d="M10.6712 2.87694C9.5487 3.35947 8.48997 3.97827 7.51897 4.71976C6.54638 5.42222 5.65935 6.23597 4.87598 7.14453" stroke="#18142B" stroke-width="2.42477" stroke-linecap="round" stroke-linejoin="round"/>
<path d="M10.6712 31.8535C9.5487 31.3711 8.48997 30.7522 7.51897 30.0107C6.54087 29.2781 5.65362 28.4316 4.87598 27.4889" stroke="#18142B" stroke-width="2.42477" stroke-linecap="round" stroke-linejoin="round"/>
<path d="M1.65164 13.7901C1.1018 16.1838 1.1018 18.6708 1.65164 21.0645" stroke="#18142B" stroke-width="2.42477" stroke-linecap="round" stroke-linejoin="round"/>
<path d="M17 33.1861V1.66406L24.2743 4.08883L29.1238 7.72598L31.5486 12.5755L32.761 18.6374L30.3362 25.9118L24.2743 30.7613L17 33.1861Z" fill="#18142B" stroke="#18142B" stroke-width="2.42477"/>
</g>
<defs>
<clipPath id="clip0_585_24358">
<rect width="33.9468" height="33.9468" fill="white" transform="matrix(0 -1 1 0 0.0263672 34.3984)"/>
</clipPath>
</defs>
</svg>
