<svg width="26" height="22" viewBox="0 0 26 22" fill="none" xmlns="http://www.w3.org/2000/svg">
<path d="M5.44942 7.2975C3.00888 8.44749 1.33002 10.848 1.33002 13.623C1.33002 15.2056 1.87603 16.6663 2.79793 17.8428L1.57948 20.6722C1.52125 20.858 1.69236 21.0354 1.8898 20.9939L5.20269 19.8267C6.24608 20.366 7.44091 20.6722 8.71061 20.6722C10.3876 20.6722 11.9339 20.1381 13.1733 19.2381M24.33 10.0164C24.33 12.0406 23.6316 13.909 22.4524 15.4137L24.0109 19.0328C24.0854 19.2704 23.8665 19.4973 23.614 19.4442L19.3766 17.9513C18.042 18.6411 16.5138 19.0328 14.8897 19.0328C9.67599 19.0328 5.44942 14.996 5.44942 10.0164C5.44942 5.03678 9.67599 1 14.8897 1C20.1035 1 24.33 5.03678 24.33 10.0164Z" stroke="#18142B" stroke-width="1.43" stroke-linecap="round" stroke-linejoin="round"/>
</svg>
