<svg width="46" height="46" viewBox="0 0 46 46" fill="none" xmlns="http://www.w3.org/2000/svg">
<rect x="0.818359" y="0.927734" width="44.8146" height="44.8146" rx="22.4073" fill="#F42E48"/>
<path d="M23.2264 44.6227C11.4885 44.6227 1.93945 35.0736 1.93945 23.3358C1.93945 11.5979 11.4885 2.04883 23.2264 2.04883C34.9642 2.04883 44.5133 11.5979 44.5133 23.3358C44.5133 35.0736 34.9642 44.6227 23.2264 44.6227ZM23.2264 3.42218C12.2458 3.42218 3.3128 12.3552 3.3128 23.3358C3.3128 34.3163 12.2458 43.2493 23.2264 43.2493C34.2069 43.2493 43.1399 34.3163 43.1399 23.3358C43.1399 12.3552 34.2069 3.42218 23.2264 3.42218Z" fill="#18142B"/>
<path d="M23.2251 28.7134C17.0476 28.7134 12.0215 31.5914 12.0215 35.1288C12.0215 35.2982 12.2614 35.4355 12.5571 35.4355C12.8528 35.4355 13.0927 35.2982 13.0927 35.1288C13.0927 31.9295 17.638 29.8337 23.2251 29.8337C28.8123 29.8337 33.3575 31.9295 33.3575 35.1288C33.3575 35.2982 33.5974 35.4355 33.8931 35.4355C34.1889 35.4355 34.4288 35.2982 34.4288 35.1288C34.4288 31.5914 29.4027 28.7134 23.2251 28.7134Z" fill="#18142B"/>
<path d="M28.6621 24.022C26.8332 24.022 25.4004 21.6088 25.4004 18.5286C25.4004 15.4484 26.8332 13.0352 28.6621 13.0352C30.491 13.0352 31.9238 15.4484 31.9238 18.5286C31.9238 21.6088 30.491 24.022 28.6621 24.022ZM28.6621 14.4085C27.7707 14.4085 26.7737 16.1703 26.7737 18.5286C26.7737 20.8868 27.7707 22.6486 28.6621 22.6486C29.5535 22.6486 30.5505 20.8868 30.5505 18.5286C30.5505 16.1703 29.5535 14.4085 28.6621 14.4085Z" fill="#18142B"/>
<path d="M17.791 24.022C15.9621 24.022 14.5293 21.6088 14.5293 18.5286C14.5293 15.4484 15.9621 13.0352 17.791 13.0352C19.6199 13.0352 21.0527 15.4484 21.0527 18.5286C21.0527 21.6088 19.6199 24.022 17.791 24.022ZM17.791 14.4085C16.8996 14.4085 15.9026 16.1703 15.9026 18.5286C15.9026 20.8868 16.8996 22.6486 17.791 22.6486C18.6824 22.6486 19.6794 20.8868 19.6794 18.5286C19.6794 16.1703 18.6824 14.4085 17.791 14.4085Z" fill="#18142B"/>
</svg>
