<svg width="30" height="29" viewBox="0 0 30 29" fill="none" xmlns="http://www.w3.org/2000/svg">
<g clip-path="url(#clip0_585_22544)">
<path d="M26.8594 25.5097C26.8919 25.7986 26.8627 26.091 26.7739 26.3679C26.6852 26.6446 26.539 26.8995 26.3447 27.1156C26.1499 27.3314 25.9115 27.5037 25.6455 27.6207C25.3793 27.7378 25.0913 27.7973 24.8005 27.795H4.70644C4.41567 27.7973 4.12775 27.7378 3.8616 27.6207C3.59546 27.5037 3.35713 27.3314 3.16232 27.1156C2.96803 26.8995 2.82173 26.6446 2.73302 26.3679C2.6443 26.091 2.61519 25.7986 2.64762 25.5097L4.45938 9.26562H25.0476L26.8594 25.5097Z" stroke="#18142B" stroke-opacity="0.5" stroke-width="2.05882" stroke-linecap="round" stroke-linejoin="round"/>
<path d="M9.60645 9.26655V6.17831C9.60645 4.81323 10.1487 3.50404 11.114 2.53878C12.0792 1.57353 13.3884 1.03125 14.7535 1.03125C16.1186 1.03125 17.4278 1.57353 18.393 2.53878C19.3583 3.50404 19.9006 4.81323 19.9006 6.17831V9.26655" stroke="#18142B" stroke-opacity="0.5" stroke-width="2.05882" stroke-linecap="round" stroke-linejoin="round"/>
</g>
<defs>
<clipPath id="clip0_585_22544">
<rect width="28.8235" height="28.8235" fill="white" transform="translate(0.341797 0.00195312)"/>
</clipPath>
</defs>
</svg>
