<svg width="21" height="20" viewBox="0 0 21 20" fill="none" xmlns="http://www.w3.org/2000/svg">
<path d="M1.05524 0.7146H4.54405L5.78691 13.0717C5.83857 13.4124 6.0116 13.7229 6.27412 13.946C6.53664 14.1692 6.87097 14.2899 7.21548 14.286H16.2155C16.5271 14.3023 16.8353 14.2161 17.0932 14.0407C17.3512 13.8653 17.5446 13.6103 17.6441 13.3146L19.5441 7.60031C19.6149 7.38549 19.6338 7.15689 19.5989 6.93337C19.5642 6.70984 19.4768 6.49777 19.3441 6.3146C19.2058 6.11986 19.0208 5.9629 18.8062 5.85807C18.5916 5.75326 18.3541 5.70393 18.1155 5.7146H5.04405" stroke="#891AFF" stroke-width="1.42857" stroke-linecap="round" stroke-linejoin="round"/>
<path d="M15.973 19.2861C15.5785 19.2861 15.2587 18.9663 15.2587 18.5718C15.2587 18.1774 15.5785 17.8575 15.973 17.8575C16.3674 17.8575 16.6872 18.1774 16.6872 18.5718C16.6872 18.9663 16.3674 19.2861 15.973 19.2861Z" stroke="#891AFF" stroke-width="1.42857" stroke-linecap="round" stroke-linejoin="round"/>
<path d="M6.68719 19.2861C6.29269 19.2861 5.9729 18.9663 5.9729 18.5718C5.9729 18.1774 6.29269 17.8575 6.68719 17.8575C7.08167 17.8575 7.40147 18.1774 7.40147 18.5718C7.40147 18.9663 7.08167 19.2861 6.68719 19.2861Z" stroke="#891AFF" stroke-width="1.42857" stroke-linecap="round" stroke-linejoin="round"/>
</svg>
