<svg width="46" height="46" viewBox="0 0 46 46" fill="none" xmlns="http://www.w3.org/2000/svg">
<rect x="0.886719" y="0.927734" width="44.8146" height="44.8146" rx="22.4073" fill="#FFBE0B"/>
<path d="M23.2967 44.6227C11.5588 44.6227 2.00977 35.0736 2.00977 23.3358C2.00977 11.5979 11.5588 2.04883 23.2967 2.04883C35.0345 2.04883 44.5836 11.5979 44.5836 23.3358C44.5836 35.0736 35.0345 44.6227 23.2967 44.6227ZM23.2967 3.42218C12.3161 3.42218 3.38312 12.3552 3.38312 23.3358C3.38312 34.3163 12.3161 43.2493 23.2967 43.2493C34.2772 43.2493 43.2103 34.3163 43.2103 23.3358C43.2103 12.3552 34.2772 3.42218 23.2967 3.42218Z" fill="#18142B"/>
<path d="M28.7344 24.022C26.9055 24.022 25.4727 21.6088 25.4727 18.5286C25.4727 15.4484 26.9055 13.0352 28.7344 13.0352C30.5633 13.0352 31.9961 15.4484 31.9961 18.5286C31.9961 21.6088 30.5633 24.022 28.7344 24.022ZM28.7344 14.4085C27.8429 14.4085 26.846 16.1703 26.846 18.5286C26.846 20.8868 27.8429 22.6486 28.7344 22.6486C29.6258 22.6486 30.6227 20.8868 30.6227 18.5286C30.6227 16.1703 29.6258 14.4085 28.7344 14.4085Z" fill="#18142B"/>
<path d="M17.8594 24.022C16.0305 24.022 14.5977 21.6088 14.5977 18.5286C14.5977 15.4484 16.0305 13.0352 17.8594 13.0352C19.6883 13.0352 21.1211 15.4484 21.1211 18.5286C21.1211 21.6088 19.6883 24.022 17.8594 24.022ZM17.8594 14.4085C16.9679 14.4085 15.971 16.1703 15.971 18.5286C15.971 20.8868 16.9679 22.6486 17.8594 22.6486C18.7508 22.6486 19.7477 20.8868 19.7477 18.5286C19.7477 16.1703 18.7508 14.4085 17.8594 14.4085Z" fill="#18142B"/>
<path d="M34.1291 31.2504L34.6316 30.6C34.9439 30.1959 34.6559 29.6094 34.1452 29.6094C33.9465 29.6094 33.7584 29.7079 33.643 29.8696C28.8444 36.5948 18.8475 36.9813 13.7079 30.513L13.1916 29.8633C13.0641 29.7029 12.8704 29.6094 12.6655 29.6094C12.0902 29.6094 11.7809 30.2852 12.1569 30.7206L13.109 31.823C18.7209 38.3209 28.8793 38.0442 34.1291 31.2504Z" fill="#18142B"/>
</svg>
