<svg width="100" height="100" viewBox="0 0 100 100" fill="none" xmlns="http://www.w3.org/2000/svg">
<path d="M50 97.5C23.808 97.5 2.5 76.192 2.5 50C2.5 23.808 23.808 2.5 50 2.5C76.192 2.5 97.5 23.808 97.5 50C97.5 76.192 76.192 97.5 50 97.5ZM50 5.56452C25.4978 5.56452 5.56452 25.4978 5.56452 50C5.56452 74.5022 25.4978 94.4355 50 94.4355C74.5022 94.4355 94.4355 74.5022 94.4355 50C94.4355 25.4978 74.5022 5.56452 50 5.56452Z" fill="#18142B"/>
<path d="M49.9999 82.0498C32.3281 82.0498 17.9502 67.6719 17.9502 50C17.9502 49.1541 18.6365 48.4678 19.4825 48.4678C20.3284 48.4678 21.0147 49.1541 21.0147 50C21.0147 65.983 34.017 78.9852 49.9999 78.9852C65.9829 78.9852 78.9851 65.983 78.9851 50C78.9851 49.1541 79.6715 48.4678 80.5174 48.4678C81.3633 48.4678 82.0497 49.1541 82.0497 50C82.0497 67.6719 67.6718 82.0498 49.9999 82.0498Z" fill="#18142B"/>
<path d="M62.1308 51.5322C58.0497 51.5322 54.8525 46.1474 54.8525 39.2742C54.8525 32.401 58.0497 27.0161 62.1308 27.0161C66.2118 27.0161 69.409 32.401 69.409 39.2742C69.409 46.1474 66.2118 51.5322 62.1308 51.5322ZM62.1308 30.0806C60.1416 30.0806 57.9171 34.012 57.9171 39.2742C57.9171 44.5363 60.1416 48.4677 62.1308 48.4677C64.1199 48.4677 66.3445 44.5363 66.3445 39.2742C66.3445 34.012 64.1199 30.0806 62.1308 30.0806Z" fill="#18142B"/>
<path d="M37.87 51.5322C33.789 51.5322 30.5918 46.1474 30.5918 39.2742C30.5918 32.401 33.789 27.0161 37.87 27.0161C41.9511 27.0161 45.1482 32.401 45.1482 39.2742C45.1482 46.1474 41.9511 51.5322 37.87 51.5322ZM37.87 30.0806C35.8809 30.0806 33.6563 34.012 33.6563 39.2742C33.6563 44.5363 35.8809 48.4677 37.87 48.4677C39.8592 48.4677 42.0837 44.5363 42.0837 39.2742C42.0837 34.012 39.8592 30.0806 37.87 30.0806Z" fill="#18142B"/>
</svg>
