<svg width="120" height="66" viewBox="0 0 120 66" fill="none" xmlns="http://www.w3.org/2000/svg">
<g clip-path="url(#clip0_414_19062)">
<mask id="mask0_414_19062" style="mask-type:luminance" maskUnits="userSpaceOnUse" x="3" y="-12" width="110" height="89">
<path d="M112.078 -11.2575H3.20863V76.2469H112.078V-11.2575Z" fill="white"/>
</mask>
<g mask="url(#mask0_414_19062)">
<path d="M50.0664 28.3392H49.2457V39.9075C49.2457 40.7823 49.7126 41.1558 50.3662 41.1558H50.9756V29.1992C50.9641 28.9655 50.8625 28.7452 50.692 28.5848C50.5216 28.4244 50.2956 28.3364 50.0615 28.3392M18.0054 28.3392H17.4845C16.7384 31.2137 15.5797 33.9648 14.0444 36.5068C12.5691 34.3095 11.5358 31.8457 11.0025 29.2533C10.8747 28.6685 10.4865 28.3441 9.65104 28.3441H9.20383C9.93115 32.5164 10.9533 34.5952 12.1524 36.6199C12.4414 37.0757 12.7703 37.5049 13.1353 37.9025C12.3441 39.0524 11.4448 40.281 11.0074 40.8511L11.5381 41.0968C11.7788 41.209 12.0489 41.2419 12.3095 41.1907C12.57 41.1394 12.8076 41.0068 12.9879 40.8118C14.3704 39.2139 15.5445 37.447 16.4819 35.5534C17.8727 33.2044 18.9096 30.4573 18.9096 29.1648C18.9096 28.58 18.6344 28.3294 18.0152 28.3294M36.9747 34.0054C34.4536 33.4255 33.8639 33.0226 33.8639 31.8284C33.8639 30.6342 34.9549 29.8627 36.8125 29.8627C38.6062 29.8627 39.653 30.3541 40.454 31.3763H40.5474V30.6096C40.5474 29.4548 39.2598 28.2606 36.9059 28.2606C33.918 28.2606 32.1783 29.9216 32.1783 32.0839C32.1783 33.8973 33.3037 34.718 35.7854 35.2635C38.3998 35.8385 39.1271 36.325 39.1271 37.6519C39.1271 38.9787 38.3998 39.7257 36.2179 39.7257C35.4866 39.746 34.7603 39.6 34.0937 39.2986C33.4272 38.9972 32.8378 38.5484 32.37 37.986H32.3011V38.8067C32.3011 40.2466 34.2964 41.3278 36.1097 41.3278C39.3581 41.3278 40.8275 39.5734 40.8275 37.4651C40.8275 35.3569 38.7782 34.4035 36.9894 33.9907M59.2906 33.9907C56.7646 33.4108 56.1798 33.0078 56.1798 31.8136C56.1798 30.6195 57.2708 29.8479 59.1284 29.8479C60.986 29.8479 61.9689 30.3394 62.7699 31.3615H62.8633V30.5949C62.8633 29.44 61.5758 28.2458 59.2218 28.2458C56.2339 28.2458 54.4942 29.9069 54.4942 32.0692C54.4942 33.8826 55.6196 34.7033 58.1013 35.2488C60.7158 35.8237 61.4431 36.3103 61.4431 37.6371C61.4431 38.964 60.7158 39.711 58.5289 39.711C57.7984 39.7312 57.0728 39.5852 56.407 39.2838C55.7412 38.9824 55.1527 38.5336 54.6859 37.9713H54.5925V38.792C54.5925 40.2319 56.5877 41.313 58.4011 41.313C61.6495 41.313 63.1189 39.5586 63.1189 37.4504C63.1189 35.3421 61.0696 34.3888 59.2808 33.976M24.5414 28.3392H23.9763C22.0106 30.7522 19.4502 38.5561 19.4502 40.3302C19.4502 40.915 19.6763 41.1558 20.2267 41.1558H20.8852C21.0719 40.1041 21.411 38.6986 21.6567 37.7649L22.0548 36.3889C22.6378 34.1202 23.5046 31.9341 24.6348 29.8823C25.7476 31.9428 26.6152 34.1265 27.2197 36.3889H22.6101V36.8803C22.6101 37.4111 22.9639 37.7698 23.7404 37.7698H27.6719C27.8193 38.3939 28.1043 39.3719 28.2763 40.2565C28.2926 40.3945 28.3364 40.5279 28.4052 40.6487C28.474 40.7694 28.5664 40.8752 28.6769 40.9595C28.7874 41.0439 28.9137 41.1051 29.0483 41.1397C29.183 41.1743 29.3232 41.1814 29.4607 41.1607H30.0848C29.441 37.0179 27.4261 31.7547 26.2958 29.7742C25.7504 28.7913 25.2786 28.3441 24.5611 28.3441M97.6076 28.3441H96.8901V39.0377C96.3195 38.202 95.8338 37.3113 95.4404 36.3791L92.7326 30.8848C91.9758 29.3614 90.9585 28.3245 89.4547 28.3245H88.6291V39.9763C88.6291 40.7282 89.0419 41.141 89.5874 41.141H90.2901V30.1821C90.8854 30.801 91.3647 31.5218 91.7055 32.31L94.4133 37.7895C95.7696 40.5169 96.8065 41.1558 97.9712 41.1558H98.4971V29.2631C98.499 29.1442 98.4772 29.0262 98.4327 28.9159C98.3883 28.8056 98.3222 28.7054 98.2384 28.6211C98.1545 28.5368 98.0546 28.4701 97.9446 28.4251C97.8346 28.3801 97.7166 28.3576 97.5977 28.3589M106.193 28.3589H104.606C103.65 28.3839 102.7 28.5091 101.77 28.7324V38.5414C101.77 40.168 102.871 41.2491 105.018 41.2491H106.158C109.481 41.2491 111.849 38.62 111.849 34.6787C111.849 30.8504 109.255 28.3687 106.193 28.3687M105.972 39.7208H105.279C104.104 39.7208 103.485 39.2294 103.485 38.0745V30.0642C104.002 29.9654 104.527 29.9096 105.053 29.8971H105.785C108.473 29.8971 110.134 31.5237 110.134 34.9392C110.134 37.7796 108.601 39.7208 105.972 39.7208ZM70.5886 39.6471C68.274 39.6471 67.7137 38.9542 67.7137 36.2464V29.6071C67.7137 28.6243 67.3059 28.3392 66.6326 28.3392H66.0183V36.6936C66.0183 39.6078 67.2862 41.2491 70.2348 41.2491H71.3012C73.4094 41.2491 73.7829 40.6349 73.7829 39.8682V39.3768C72.9702 39.5709 72.1368 39.665 71.3012 39.6569L70.5886 39.6471ZM80.6876 28.3441H80.1224C78.1567 30.7571 75.6012 38.561 75.6012 40.3351C75.6012 40.9199 75.8273 41.1607 76.3728 41.1607H77.0215C77.2131 40.109 77.5522 38.7035 77.7979 37.7698L78.1911 36.3938C78.7736 34.1242 79.6422 31.9378 80.776 29.8872C81.8874 31.9478 82.7533 34.1316 83.356 36.3938H78.7464V36.8852C78.7464 37.416 79.1051 37.7747 79.8767 37.7747H83.8082C83.9605 38.3988 84.2455 39.3768 84.4126 40.2614C84.4288 40.3999 84.4728 40.5338 84.5419 40.6549C84.611 40.776 84.7039 40.882 84.8149 40.9664C84.926 41.0508 85.0529 41.112 85.1881 41.1462C85.3233 41.1804 85.4641 41.187 85.6019 41.1656H86.2211C85.5822 37.0228 83.5674 31.7596 82.4322 29.7791C81.8867 28.7963 81.4149 28.349 80.6974 28.349" fill="#19132E"/>
<path d="M83.8471 19.8849C83.5786 19.8849 83.3211 19.9915 83.1312 20.1814C82.9414 20.3712 82.8347 20.6287 82.8347 20.8972C82.8347 21.1657 82.9414 21.4232 83.1312 21.613C83.3211 21.8029 83.5786 21.9096 83.8471 21.9096C84.1058 21.9033 84.3522 21.7978 84.5352 21.6148C84.7182 21.4318 84.8237 21.1854 84.83 20.9267C84.8277 20.6635 84.7244 20.4112 84.5415 20.2219C84.3587 20.0326 84.1101 19.9208 83.8471 19.9094" fill="#19132E"/>
<path d="M93.4503 9.72047C93.711 9.72047 93.961 9.61691 94.1453 9.43259C94.3296 9.24827 94.4332 8.99827 94.4332 8.7376C94.4321 8.47403 94.3293 8.22106 94.1461 8.03151C93.963 7.84195 93.7137 7.73047 93.4503 7.72034C93.1818 7.72034 92.9243 7.82699 92.7345 8.01685C92.5446 8.2067 92.4379 8.46419 92.4379 8.73269C92.4379 9.00118 92.5446 9.25867 92.7345 9.44853C92.9243 9.63838 93.1818 9.74504 93.4503 9.74504" fill="#19132E"/>
<path d="M108.364 13.4139C108.035 13.124 107.632 12.7898 107.205 12.431C107.205 12.431 105.101 10.6324 102.978 11.4482C102.624 11.5502 102.282 11.6886 101.956 11.861C101.874 11.9119 101.804 11.9786 101.748 12.057C101.692 12.1355 101.653 12.2242 101.632 12.318C101.616 12.4121 101.62 12.5083 101.642 12.6011C101.664 12.6939 101.704 12.7814 101.76 12.8586L102.3 13.6695L102.747 13.468C103.568 13.1338 104.713 12.8389 105.445 13.2763C106.724 14.1238 107.929 15.0773 109.047 16.1266L109.775 16.8146L109.097 16.8785C108.025 16.9768 107.042 16.9817 106.099 16.9817H94.4274V11.8561C94.4159 11.6197 94.3132 11.3969 94.1409 11.2347C93.9686 11.0725 93.7401 10.9834 93.5035 10.9862H92.6729V18.8C92.6729 20.2743 92.0439 21.036 90.8055 21.036C90.4368 21.0395 90.07 20.9831 89.7194 20.8689V21.267C89.7194 21.8321 90.1322 22.4366 91.292 22.4366C92.0046 22.4366 94.3979 22.1319 94.3979 19.1293L94.4274 18.5346H105.868C107.492 18.5585 109.113 18.3936 110.699 18.0432C110.955 17.9952 111.193 17.8784 111.388 17.7053C111.583 17.5321 111.727 17.3091 111.804 17.0603L111.844 16.9621C110.787 15.6931 109.623 14.5175 108.364 13.4483" fill="#19132E"/>
<path d="M86.392 19.8849C86.1235 19.8849 85.866 19.9915 85.6762 20.1814C85.4863 20.3712 85.3797 20.6287 85.3797 20.8972C85.3797 21.1657 85.4863 21.4232 85.6762 21.613C85.866 21.8029 86.1235 21.9096 86.392 21.9096C86.6527 21.9096 86.9027 21.806 87.087 21.6217C87.2713 21.4374 87.3749 21.1874 87.3749 20.9267C87.3738 20.6631 87.271 20.4102 87.0878 20.2206C86.9047 20.031 86.6554 19.9196 86.392 19.9094" fill="#19132E"/>
<path d="M86.4709 10.978H85.6403V16.9833H67.7424V11.8577C67.7309 11.6204 67.6276 11.3969 67.4542 11.2346C67.2808 11.0722 67.0511 10.9837 66.8136 10.9878H65.9831V18.8016C65.9831 20.2759 65.3589 21.0376 64.1205 21.0376C63.7502 21.041 63.3818 20.9846 63.0295 20.8705V21.2686C63.0295 21.8337 63.4473 22.4382 64.607 22.4382C65.3196 22.4382 67.7424 22.2072 67.7424 19.2046V18.5215H85.3013C87.1245 18.5215 87.3751 17.8974 87.3947 17.2782V11.8577C87.3845 11.6208 87.2822 11.3974 87.1097 11.2349C86.9371 11.0724 86.7079 10.9838 86.4709 10.9878" fill="#19132E"/>
<path d="M49.1231 17.1645V11.8571C49.1117 11.6207 49.009 11.3979 48.8367 11.2357C48.6644 11.0735 48.4359 10.9844 48.1992 10.9872H47.3687V16.9827H35.0829C33.0336 16.9827 32.6258 16.0391 32.6258 14.2946V7.06067V6.56924C32.6143 6.33285 32.5116 6.11012 32.3393 5.94789C32.167 5.78566 31.9385 5.69658 31.7019 5.69941H30.8713V14.5452C30.8713 17.1301 32.2179 18.4766 34.7586 18.4766H47.0444C48.9757 18.4766 49.1379 17.7739 49.1379 17.1203" fill="#19132E"/>
<path d="M60.9755 9.71774C61.2342 9.7115 61.4806 9.60594 61.6635 9.42296C61.8465 9.23997 61.9521 8.99358 61.9583 8.73487C61.9642 8.53225 61.909 8.33255 61.8001 8.16163C61.6911 7.9907 61.5333 7.85642 61.3472 7.77617C61.1611 7.69592 60.9551 7.67339 60.756 7.71151C60.5569 7.74963 60.3739 7.84663 60.2306 7.98996C60.0872 8.13329 59.9902 8.31635 59.9521 8.51544C59.914 8.71452 59.9365 8.92046 60.0168 9.1066C60.097 9.29274 60.2313 9.4505 60.4022 9.55946C60.5732 9.66842 60.7729 9.72356 60.9755 9.71774Z" fill="#19132E"/>
<path d="M105.589 19.8849C105.32 19.8849 105.063 19.9915 104.873 20.1814C104.683 20.3712 104.576 20.6287 104.576 20.8972C104.576 21.1657 104.683 21.4232 104.873 21.613C105.063 21.8029 105.32 21.9096 105.589 21.9096C105.848 21.9033 106.094 21.7978 106.277 21.6148C106.46 21.4318 106.565 21.1854 106.572 20.9267C106.569 20.6635 106.466 20.4112 106.283 20.2219C106.1 20.0326 105.852 19.9208 105.589 19.9094" fill="#19132E"/>
<path d="M48.1662 19.8849C47.8977 19.8849 47.6402 19.9915 47.4503 20.1814C47.2605 20.3712 47.1538 20.6287 47.1538 20.8972C47.1538 21.1657 47.2605 21.4232 47.4503 21.613C47.6402 21.8029 47.8977 21.9096 48.1662 21.9096C48.4292 21.9096 48.6818 21.8069 48.87 21.6232C49.0582 21.4396 49.1672 21.1896 49.1736 20.9267C49.1711 20.6594 49.0645 20.4036 48.8763 20.2136C48.6882 20.0237 48.4335 19.9145 48.1662 19.9094" fill="#19132E"/>
<path d="M44.587 20.9021C44.5983 21.1659 44.7109 21.4152 44.9012 21.5983C45.0916 21.7813 45.3451 21.884 45.6091 21.885C45.8678 21.8787 46.1142 21.7732 46.2972 21.5902C46.4802 21.4072 46.5858 21.1608 46.592 20.9021C46.5909 20.6385 46.4881 20.3856 46.305 20.196C46.1218 20.0065 45.8725 19.895 45.6091 19.8849C45.3397 19.8874 45.0819 19.9952 44.8909 20.1853C44.6999 20.3754 44.5908 20.6327 44.587 20.9021Z" fill="#19132E"/>
<path d="M58.4254 9.72047C58.6861 9.72047 58.9361 9.61691 59.1204 9.43259C59.3047 9.24827 59.4083 8.99827 59.4083 8.7376C59.4072 8.47403 59.3044 8.22106 59.1212 8.03151C58.9381 7.84195 58.6888 7.73047 58.4254 7.72034C58.1569 7.72034 57.8994 7.82699 57.7096 8.01685C57.5197 8.2067 57.4131 8.46419 57.4131 8.73269C57.4131 9.00118 57.5197 9.25867 57.7096 9.44853C57.8994 9.63838 58.1569 9.74504 58.4254 9.74504" fill="#19132E"/>
<path d="M27.3871 10.9771H26.5566V17.0069H25.2002C24.9783 17.0296 24.7542 16.9965 24.5482 16.9106C24.3423 16.8248 24.161 16.689 24.0208 16.5155C23.8286 16.2237 23.7261 15.882 23.7259 15.5326V11.8567C23.7145 11.6195 23.6111 11.396 23.4377 11.2336C23.2644 11.0713 23.0346 10.9828 22.7971 10.9869H21.9666V15.5916C21.9767 15.9495 21.8561 16.2989 21.6275 16.5745C21.493 16.7185 21.3289 16.8317 21.1466 16.9064C20.9642 16.981 20.7678 17.0153 20.5709 17.0069C20.3725 17.0161 20.1744 16.9822 19.9903 16.9075C19.8063 16.8329 19.6405 16.7193 19.5045 16.5745C19.2858 16.3105 19.1659 15.9786 19.1654 15.6358V11.8567C19.154 11.6195 19.0506 11.396 18.8773 11.2336C18.7039 11.0713 18.4741 10.9828 18.2366 10.9869H17.4061V17.2625C17.4755 18.2183 17.2582 19.1731 16.782 20.0047C15.7746 21.5723 10.8848 22.0048 10.8504 17.6802C10.8504 15.8668 11.3418 14.8102 12.3788 13.9994V13.9011H11.6072C10.4376 13.9011 9.22867 15.2034 9.22867 17.5819C9.22867 24.7372 18.9934 23.4791 18.9934 18.5058L19.0475 17.9308L19.4947 18.2994C19.8662 18.5819 20.3261 18.723 20.7921 18.6975C21.1657 18.7064 21.5356 18.6219 21.8683 18.4518C22.1338 18.2988 22.3451 18.0669 22.4728 17.7883L22.7332 17.2969L23.0134 17.7883C23.1307 18.0347 23.3212 18.2389 23.5588 18.3731C23.8594 18.4957 24.1831 18.551 24.5073 18.5353H28.2766V11.8567C28.264 11.6186 28.1608 11.3942 27.9881 11.2297C27.8154 11.0652 27.5863 10.9731 27.3478 10.9722" fill="#19132E"/>
<path d="M59.3294 18.5077H59.988C61.2706 18.5077 61.8898 18.0162 61.8898 17.0334V11.205C61.3479 11.0687 60.7923 10.9946 60.2337 10.9838H59.4081C57.7028 10.9838 55.968 12.178 55.968 14.645C55.968 16.8466 57.4079 18.5077 59.3196 18.5077M59.4081 12.4827H59.6341C59.8812 12.491 60.1266 12.5256 60.3664 12.5859V16.2815C60.3664 16.6304 60.214 17.053 59.5064 17.053H59.3294C58.2974 17.053 57.5161 15.967 57.5161 14.817C57.5161 13.5049 58.2581 12.468 59.4081 12.468" fill="#19132E"/>
<path d="M111.372 48.0169C111.33 47.9861 111.297 47.9451 111.275 47.8978C111.254 47.8505 111.245 47.7984 111.249 47.7466C111.249 47.5697 111.347 47.4862 111.549 47.4862C111.616 47.4841 111.683 47.4958 111.746 47.5206L111.873 47.5796C111.912 47.5534 111.944 47.5183 111.966 47.4773C111.988 47.4362 112 47.3904 112.001 47.3437C112 47.2985 111.985 47.2546 111.959 47.2178C111.933 47.1811 111.896 47.153 111.854 47.1373C111.738 47.0895 111.615 47.0661 111.49 47.0685C111.312 47.0669 111.139 47.1258 110.999 47.2356C110.926 47.2939 110.869 47.3693 110.832 47.4549C110.795 47.5406 110.78 47.634 110.787 47.727C110.783 47.7976 110.794 47.8682 110.817 47.9349C110.841 48.0015 110.877 48.0628 110.925 48.1152C110.873 48.1152 110.823 48.1254 110.775 48.1452C110.728 48.1651 110.685 48.1941 110.649 48.2307C110.612 48.2672 110.584 48.3106 110.565 48.3583C110.546 48.406 110.536 48.457 110.537 48.5084V48.5378H111.682C111.733 48.5378 111.783 48.5278 111.83 48.5083C111.877 48.4888 111.92 48.4602 111.956 48.4241C111.992 48.3881 112.021 48.3453 112.04 48.2982C112.06 48.2511 112.07 48.2006 112.07 48.1496V48.1152H111.657C111.554 48.1185 111.453 48.0892 111.367 48.0317" fill="#19132E"/>
<path d="M91.5919 51.8163C91.0368 51.8067 90.4924 51.9698 90.0341 52.2831L89.8424 52.4158V49.5606C89.8361 49.4415 89.784 49.3295 89.697 49.248C89.6099 49.1665 89.4948 49.1218 89.3756 49.1232H88.9529V54.8484H87.341C87.1567 54.8484 86.9726 54.8337 86.7906 54.8042H86.6874V52.2537C86.6757 52.1361 86.6221 52.0268 86.5364 51.9455C86.4506 51.8643 86.3385 51.8167 86.2206 51.8114H85.7979V54.814H85.6898C85.5268 54.8351 85.3627 54.8466 85.1984 54.8484H76.0921V53.6788C76.0921 52.5534 75.4729 51.8556 74.4753 51.8556C73.3598 51.8556 72.7701 52.5092 72.7701 53.7476V56.6962C72.7701 56.7699 72.7701 56.7797 72.7701 56.7797H71.4039C71.3074 56.7872 71.2104 56.7872 71.1139 56.7797L70.9714 56.7453L70.8338 56.7011C70.4721 56.5766 70.1596 56.3396 69.9421 56.0248C69.7246 55.7101 69.6135 55.334 69.6249 54.9516C69.6085 54.4214 69.7731 53.9014 70.0918 53.4773H69.9198C69.0548 53.4773 68.9369 54.3766 68.9369 54.9172C68.9251 55.2977 68.9943 55.6763 69.1401 56.0279C69.2858 56.3795 69.5047 56.6961 69.7822 56.9567L69.8608 57.0255C70.0545 57.1872 70.2783 57.3092 70.5193 57.3842C70.8107 57.4736 71.1139 57.5183 71.4186 57.5169H73.6743V53.5854C73.7038 52.981 73.9299 52.7156 74.4016 52.7156C74.9619 52.7156 75.2026 53.0252 75.2026 53.7525V54.8386C75.2026 55.2711 75.3599 55.5462 75.6351 55.6003C75.7414 55.6079 75.8482 55.6079 75.9545 55.6003H85.2082C85.7242 55.6003 86.0387 55.6003 86.1911 55.3743L86.2943 55.2465L86.3975 55.3743C86.5302 55.5856 86.8447 55.6003 87.3803 55.6003H93.7247C93.8383 55.0675 93.8878 54.5231 93.8722 53.9786C93.8788 53.6863 93.8248 53.3958 93.7134 53.1255C93.602 52.8552 93.4358 52.6109 93.2251 52.4081C93.0145 52.2053 92.7641 52.0485 92.4897 51.9475C92.2154 51.8464 91.9231 51.8034 91.6312 51.8212M93.1055 54.8632H89.7638C89.7042 54.4284 89.7292 53.9862 89.8375 53.5609C90.0193 53.1628 90.3289 52.637 91.4789 52.637C92.6288 52.637 92.8795 53.1628 93.0515 53.5609C93.1487 53.988 93.1671 54.4294 93.1055 54.8632Z" fill="#19132E"/>
<path d="M111.373 49.123H110.931V54.9563C110.931 55.4035 111.172 55.5952 111.506 55.5952H111.82V49.5604C111.817 49.4992 111.802 49.4394 111.775 49.3842C111.749 49.329 111.712 49.2796 111.666 49.2389C111.62 49.1982 111.567 49.167 111.509 49.1471C111.451 49.1272 111.39 49.119 111.329 49.123" fill="#19132E"/>
<path d="M108.738 51.7964H108.316V54.8581H98.0349V52.4009C98.0331 52.3292 98.0215 52.2581 98.0005 52.1896L97.976 52.1306C97.9265 52.0235 97.8439 51.9351 97.7404 51.8785C97.6369 51.8218 97.5179 51.8 97.401 51.8161H96.7326C95.7498 51.8161 95.1945 52.6958 95.1945 53.8064C95.1945 54.578 95.4205 55.7328 96.3936 55.6001H96.482C96.6012 55.5889 96.7111 55.5309 96.7876 55.4388C96.864 55.3466 96.9008 55.2279 96.8899 55.1087V54.8581H96.7621C96.2707 54.8581 95.9414 54.6222 95.9414 53.8752C95.9414 52.8137 96.2658 52.5926 96.7228 52.5926H96.8064C96.8545 52.5926 96.9022 52.6021 96.9467 52.6207C96.9911 52.6393 97.0314 52.6665 97.0653 52.7008C97.0991 52.7351 97.1258 52.7758 97.1438 52.8205C97.1617 52.8652 97.1707 52.913 97.17 52.9611V55.7082C97.17 56.4061 96.8653 56.7599 96.2854 56.7599C96.0947 56.7609 95.9053 56.7293 95.7252 56.6665V56.8975C95.7252 57.1875 95.9316 57.4971 96.5213 57.4971C96.7299 57.5035 96.9375 57.4655 97.1303 57.3858C97.3231 57.306 97.4968 57.1862 97.6399 57.0343C97.783 56.8824 97.8921 56.7019 97.9602 56.5046C98.0284 56.3074 98.0538 56.0979 98.0349 55.8901V55.5952H108.154C109.136 55.5952 109.205 55.2365 109.205 54.9072V52.2387C109.2 52.1188 109.149 52.0056 109.061 51.923C108.974 51.8405 108.858 51.7951 108.738 51.7964Z" fill="#19132E"/>
<path d="M71.0692 58.2125C70.9962 58.2054 70.9225 58.2137 70.8529 58.2368C70.7833 58.2599 70.7193 58.2972 70.665 58.3465C70.6107 58.3958 70.5673 58.4559 70.5376 58.523C70.5079 58.59 70.4925 58.6626 70.4925 58.7359C70.4925 58.8092 70.5079 58.8817 70.5376 58.9488C70.5673 59.0158 70.6107 59.076 70.665 59.1252C70.7193 59.1745 70.7833 59.2119 70.8529 59.235C70.9225 59.2581 70.9962 59.2663 71.0692 59.2593C71.1394 59.2619 71.2095 59.2504 71.2753 59.2255C71.341 59.2005 71.4011 59.1627 71.452 59.1141C71.5028 59.0655 71.5434 59.0072 71.5714 58.9427C71.5993 58.8782 71.614 58.8087 71.6146 58.7383C71.6134 58.6001 71.5582 58.4678 71.461 58.3696C71.3637 58.2714 71.2319 58.2151 71.0937 58.2125" fill="#19132E"/>
<path d="M72.3877 58.2125C72.3147 58.2054 72.241 58.2137 72.1714 58.2368C72.1018 58.2599 72.0378 58.2972 71.9835 58.3465C71.9292 58.3958 71.8858 58.4559 71.8561 58.523C71.8264 58.59 71.811 58.6626 71.811 58.7359C71.811 58.8092 71.8264 58.8817 71.8561 58.9488C71.8858 59.0158 71.9292 59.076 71.9835 59.1252C72.0378 59.1745 72.1018 59.2119 72.1714 59.235C72.241 59.2581 72.3147 59.2663 72.3877 59.2593C72.5258 59.2593 72.6583 59.2044 72.756 59.1067C72.8537 59.009 72.9086 58.8765 72.9086 58.7383C72.9073 58.6001 72.8522 58.4678 72.7549 58.3696C72.6576 58.2714 72.5259 58.2151 72.3877 58.2125Z" fill="#19132E"/>
<path d="M86.2011 56.2932C86.1282 56.2861 86.0545 56.2944 85.9849 56.3175C85.9153 56.3406 85.8513 56.3779 85.797 56.4272C85.7427 56.4765 85.6993 56.5366 85.6696 56.6037C85.6399 56.6707 85.6245 56.7433 85.6245 56.8166C85.6245 56.8899 85.6399 56.9624 85.6696 57.0295C85.6993 57.0966 85.7427 57.1567 85.797 57.206C85.8513 57.2552 85.9153 57.2926 85.9849 57.3157C86.0545 57.3388 86.1282 57.347 86.2011 57.34C86.3393 57.34 86.4718 57.2851 86.5695 57.1874C86.6672 57.0897 86.7221 56.9572 86.7221 56.819C86.7208 56.6808 86.6657 56.5485 86.5684 56.4503C86.4711 56.3521 86.3394 56.2958 86.2011 56.2932Z" fill="#19132E"/>
<path d="M108.538 56.3014C108.465 56.2943 108.391 56.3026 108.322 56.3257C108.252 56.3487 108.188 56.3861 108.134 56.4354C108.079 56.4847 108.036 56.5448 108.006 56.6119C107.977 56.6789 107.961 56.7514 107.961 56.8248C107.961 56.8981 107.977 56.9706 108.006 57.0377C108.036 57.1047 108.079 57.1648 108.134 57.2141C108.188 57.2634 108.252 57.3008 108.322 57.3239C108.391 57.347 108.465 57.3552 108.538 57.3481C108.676 57.3469 108.807 57.2916 108.905 57.1942C109.002 57.0967 109.057 56.965 109.059 56.8272C109.058 56.689 109.002 56.5567 108.905 56.4585C108.808 56.3603 108.676 56.3039 108.538 56.3014Z" fill="#19132E"/>
<path d="M91.4843 51.174C91.6238 51.1715 91.7568 51.1146 91.855 51.0154C91.9532 50.9163 92.0089 50.7828 92.0102 50.6433C92.0076 50.5055 91.9511 50.3743 91.8527 50.2778C91.7544 50.1813 91.6221 50.1272 91.4843 50.1273C91.347 50.1273 91.2153 50.1815 91.1177 50.2781C91.0202 50.3747 90.9647 50.506 90.9634 50.6433C90.9634 50.7823 91.018 50.9159 91.1154 51.0151C91.2128 51.1144 91.3453 51.1714 91.4843 51.174Z" fill="#19132E"/>
<path d="M16.8156 52.6063V54.1593C16.8156 54.6261 17.1006 54.862 17.6707 54.862H18.3488C19.14 54.862 19.6413 54.4885 19.6413 53.7366C19.6413 52.911 19.2334 52.6063 18.167 52.6063H16.8156ZM16.8156 51.8839H18.1375C19.0418 51.8839 19.5479 51.6235 19.5479 50.8519C19.5479 50.0804 19.0565 49.8691 18.1965 49.8691H17.6608C17.3759 49.8766 17.0925 49.9145 16.8156 49.9821V51.8839ZM18.398 55.6434H17.6363C16.4323 55.6434 15.9556 55.0733 15.9556 54.1937V49.3383C16.4664 49.1836 16.9948 49.0944 17.5282 49.0729H18.3882C19.6905 49.0729 20.403 49.8248 20.403 50.7684C20.4255 51.108 20.3199 51.4438 20.107 51.7094C19.8941 51.975 19.5895 52.1513 19.2531 52.2034C19.6029 52.2652 19.9208 52.4455 20.1534 52.7139C20.3861 52.9823 20.5193 53.3226 20.5308 53.6777C20.5308 54.8866 19.6069 55.6434 18.398 55.6434Z" fill="#19132E"/>
<path d="M22.2316 49.1232H22.5363C22.954 49.1232 23.1063 49.2903 23.1063 49.8063V52.5976C23.1063 54.2046 23.642 54.8828 24.8509 54.8828C26.0598 54.8828 26.5365 54.2243 26.5365 52.6713V49.1232H26.8953C27.2589 49.1232 27.4358 49.3296 27.4358 49.7571V52.5976C27.4358 54.5634 26.5218 55.6936 24.8165 55.6936C23.1112 55.6936 22.2561 54.5879 22.2561 52.6713L22.2316 49.1232Z" fill="#19132E"/>
<path d="M34.6927 49.8543H34.3241C34.0554 49.8615 33.7875 49.8894 33.5231 49.9379V54.0217C33.5231 54.6163 33.8376 54.862 34.4372 54.862H34.791C36.1326 54.862 36.914 53.8791 36.914 52.4048C36.914 50.6603 36.0638 49.8347 34.6927 49.8347M34.8844 55.6237H34.3045C33.2086 55.6237 32.6483 55.0733 32.6483 54.2428V49.2646C33.1216 49.1487 33.606 49.0845 34.0931 49.0729H34.904C36.4668 49.0729 37.7887 50.3408 37.7887 52.2918C37.7887 54.2428 36.5798 55.6434 34.8844 55.6434" fill="#19132E"/>
<path d="M44.3133 55.5954C44.233 55.5937 44.1539 55.5755 44.0809 55.5419C44.008 55.5083 43.9427 55.46 43.8892 55.4001C43.8357 55.3401 43.7952 55.2698 43.7701 55.1935C43.745 55.1172 43.7358 55.0365 43.7433 54.9565V52.6173H40.4753V55.5954H40.1656C40.0863 55.5932 40.0083 55.5745 39.9365 55.5405C39.8648 55.5064 39.801 55.4578 39.7492 55.3976C39.6974 55.3375 39.6587 55.2672 39.6357 55.1912C39.6126 55.1153 39.6056 55.0353 39.6152 54.9565V49.1232H40.0821C40.138 49.1238 40.1933 49.1357 40.2444 49.1583C40.2956 49.1808 40.3417 49.2136 40.3798 49.2545C40.418 49.2954 40.4474 49.3436 40.4663 49.3962C40.4853 49.4488 40.4933 49.5048 40.49 49.5606V51.8163H43.758V49.1232H44.1757C44.2338 49.1226 44.2915 49.1334 44.3454 49.155C44.3993 49.1766 44.4484 49.2087 44.4899 49.2493C44.5315 49.2899 44.5646 49.3383 44.5874 49.3917C44.6102 49.4451 44.6223 49.5025 44.6229 49.5606V55.5954H44.3133Z" fill="#19132E"/>
<path d="M53.678 52.6063V54.1593C53.678 54.6261 53.9679 54.862 54.538 54.862H55.2112C56.0025 54.862 56.5086 54.4885 56.5086 53.7366C56.5086 52.911 56.1007 52.6063 55.0343 52.6063H53.678ZM53.678 51.8839H55.0049C55.9091 51.8839 56.4153 51.6235 56.4153 50.8519C56.4153 50.0804 55.9238 49.8691 55.0589 49.8691H54.5282C54.2415 49.8763 53.9565 49.9142 53.678 49.9821V51.8839ZM55.2604 55.6434H54.4987C53.2996 55.6434 52.8229 55.0733 52.8229 54.1937V49.3383C53.3337 49.1836 53.8621 49.0944 54.3955 49.0729H55.2506C56.5578 49.0729 57.2703 49.8248 57.2703 50.7684C57.2917 51.1078 57.1856 51.4429 56.9729 51.7083C56.7603 51.9737 56.4563 52.1502 56.1204 52.2034C56.4697 52.2654 56.787 52.4458 57.0188 52.7143C57.2506 52.9829 57.3828 53.3231 57.3932 53.6777C57.3932 54.8866 56.4693 55.6434 55.2604 55.6434Z" fill="#19132E"/>
<path d="M59.8209 55.5955C59.4867 55.5955 59.2508 55.4038 59.2508 54.9566V49.1233H59.6686C59.7881 49.1206 59.904 49.1649 59.9913 49.2467C60.0786 49.3285 60.1303 49.4412 60.1354 49.5607V55.5955H59.8209Z" fill="#19132E"/>
<path d="M49.5017 49.8456C49.2265 49.3542 48.9857 49.1232 48.627 49.1232H48.337C47.3542 50.342 46.0519 54.2832 46.0519 55.1776C46.0519 55.4725 46.1698 55.5954 46.445 55.5954H46.7792C46.8725 55.0646 47.0446 54.3569 47.1674 53.8803L47.3689 53.1873C47.663 52.041 48.1006 50.9364 48.6712 49.8997C49.2398 50.9397 49.6835 52.0432 49.9931 53.1873H47.6638V53.4331C47.6638 53.7034 47.8407 53.8803 48.2338 53.8803H50.1996C50.2782 54.1948 50.4207 54.6911 50.5042 55.1383C50.5127 55.2081 50.535 55.2755 50.5699 55.3365C50.6048 55.3975 50.6516 55.4508 50.7075 55.4935C50.7634 55.5361 50.8273 55.567 50.8953 55.5845C50.9634 55.602 51.0343 55.6057 51.1038 55.5954H51.4183C51.0615 53.596 50.4159 51.6592 49.5017 49.8456Z" fill="#19132E"/>
<path d="M12.6441 49.8456C12.3689 49.3542 12.1527 49.1232 11.7694 49.1232H11.4843C10.5015 50.342 9.19916 54.2832 9.19916 55.1776C9.19916 55.4725 9.31219 55.5954 9.58739 55.5954H9.92156C10.0149 55.0646 10.1869 54.3569 10.3098 53.8803L10.5113 53.1873C10.8071 52.0408 11.2463 50.9362 11.8185 49.8997C12.3834 50.9408 12.8254 52.0441 13.1355 53.1873H10.8062V53.4331C10.8062 53.7033 10.988 53.8803 11.3811 53.8803H13.3468C13.4206 54.1948 13.5631 54.6911 13.6515 55.1383C13.6593 55.2084 13.6812 55.2761 13.7159 55.3375C13.7506 55.3988 13.7974 55.4525 13.8535 55.4952C13.9095 55.5379 13.9737 55.5688 14.042 55.586C14.1104 55.6033 14.1815 55.6064 14.2511 55.5954H14.5656C14.2113 53.5954 13.5655 51.6582 12.649 49.8456" fill="#19132E"/>
</g>
</g>
<defs>
<clipPath id="clip0_414_19062">
<rect width="119.532" height="64.9807" fill="white" transform="translate(0 0.104362)"/>
</clipPath>
</defs>
</svg>
